<?xml version="1.0" encoding="UTF-8" standalone="no"?>
<svg
   xmlns:dc="http://purl.org/dc/elements/1.1/"
   xmlns:cc="http://creativecommons.org/ns#"
   xmlns:rdf="http://www.w3.org/1999/02/22-rdf-syntax-ns#"
   xmlns:svg="http://www.w3.org/2000/svg"
   xmlns="http://www.w3.org/2000/svg"
   version="1.0"
   width="584.000000pt"
   height="101.000000pt"
   viewBox="0 0 584.000000 101.000000"
   preserveAspectRatio="xMidYMid meet"
   id="svg48">
  <defs />
  <rect
     style="fill:#00abd6"
     id="textColor"
     width="584.000000"
     height="101.000000"
     x="0"
     y="0" />
  <g
     transform="translate(0.000000,101.000000) scale(0.100000,-0.100000)"
     fill="#00abd6"
     stroke="none"
     id="dansandePar">
    <path
       d="M0 505 l0 -505 2920 0 2920 0 0 505 0 505 -2920 0 -2920 0 0 -505z m361 349 c-74 -68 -83 -83 -53 -85 11 0 12 -2 4 -6 -7 -3 -19 1 -27 7 -13 10 -11 15 8 31 16 13 18 18 7 18 -23 0 -71 -47 -68 -66 2 -15 -4 -18 -33 -16 -33 2 -36 0 -33 -20 4 -21 4 -20 -8 2 -10 19 -10 25 0 29 8 2 1 14 -18 32 -38 36 -38 47 3 58 38 11 57 -1 57 -34 0 -21 2 -23 27 -13 15 5 46 28 70 49 23 22 47 40 52 40 5 0 11 9 14 20 4 15 14 20 37 20 l32 0 -71 -66z m16 -80 c12 -3 25 -15 29 -26 6 -19 6 -19 41 2 30 17 38 19 61 8 34 -17 40 -37 9 -31 -25 5 -63 -14 -115 -59 -22 -18 -33 -38 -38 -68 l-7 -41 37 17 c33 16 38 17 52 2 19 -19 11 -54 -15 -63 -11 -3 -19 -16 -20 -33 -3 -71 -9 -106 -17 -109 -10 -3 -10 59 1 76 4 7 -3 11 -17 11 -13 0 -33 3 -44 6 -20 5 -23 0 -37 -88 -12 -78 -15 -85 -16 -45 -1 27 4 67 10 91 10 41 9 46 -23 97 -66 104 -103 175 -81 157 29 -26 36 -22 18 12 l-16 30 65 0 c61 0 64 1 76 30 13 32 14 33 47 24z m418 -97 c42 -42 59 -102 53 -187 -10 -135 -55 -180 -181 -180 -77 0 -78 0 -71 23 9 25 7 332 -2 359 -5 16 3 18 81 18 85 0 88 -1 120 -33z m815 -47 c0 -44 4 -80 9 -80 16 0 41 31 41 51 0 10 9 28 20 39 28 28 63 11 58 -28 -2 -21 -9 -28 -30 -30 l-26 -3 20 -45 c11 -26 22 -79 25 -122 3 -42 10 -83 16 -89 7 -10 -1 -13 -36 -13 -25 0 -49 5 -52 10 -4 6 -9 44 -12 85 -3 42 -12 83 -19 93 -12 15 -13 5 -8 -68 3 -47 8 -93 10 -102 5 -16 -2 -18 -48 -18 l-53 0 0 200 0 200 43 0 42 0 0 -80z m245 68 c2 -7 6 -97 7 -201 l3 -187 -50 0 -50 0 0 200 0 200 43 0 c25 0 44 -5 47 -12z m367 -15 c0 -16 1 -36 0 -45 -2 -19 11 -21 43 -9 56 22 88 -37 88 -164 0 -121 -32 -171 -93 -148 -17 6 -32 7 -36 2 -3 -5 -24 -9 -47 -9 l-42 0 0 200 0 200 43 0 c39 0 42 -2 44 -27z m240 0 c0 -16 1 -36 0 -45 -2 -19 11 -21 43 -9 56 22 88 -37 88 -164 0 -121 -32 -171 -93 -148 -17 6 -32 7 -36 2 -3 -5 -24 -9 -47 -9 l-42 0 0 200 0 200 43 0 c39 0 42 -2 44 -27z m887 14 c41 -21 63 -60 64 -113 1 -54 -25 -114 -48 -114 -21 0 -18 -18 4 -25 23 -7 39 -47 39 -97 l0 -38 -44 0 c-47 0 -48 3 -56 95 -2 17 -9 30 -16 30 -16 0 -27 -91 -12 -100 25 -16 4 -25 -55 -25 -59 0 -65 2 -57 18 10 19 8 349 -2 359 -17 17 1 23 77 23 45 0 93 -6 106 -13z m611 -67 c0 -44 4 -80 9 -80 16 0 41 31 41 51 0 10 9 28 20 39 28 28 63 11 58 -28 -2 -21 -9 -28 -30 -30 l-26 -3 20 -45 c11 -26 22 -79 25 -122 3 -42 10 -83 16 -89 7 -10 -1 -13 -36 -13 -25 0 -49 5 -52 10 -4 6 -9 44 -12 85 -3 42 -12 83 -19 93 -12 15 -13 5 -8 -68 3 -47 8 -93 10 -102 5 -16 -2 -18 -48 -18 l-53 0 0 200 0 200 43 0 42 0 0 -80z m665 68 c2 -7 6 -97 7 -201 l3 -187 -50 0 -50 0 0 200 0 200 43 0 c25 0 44 -5 47 -12z m120 0 c2 -7 6 -97 7 -201 l3 -187 -50 0 -50 0 0 200 0 200 43 0 c25 0 44 -5 47 -12z m-3699 -89 c28 -26 33 -51 36 -192 l3 -107 -42 0 c-24 0 -43 5 -46 13 -4 10 -7 10 -18 0 -23 -22 -66 -15 -88 13 -24 31 -28 104 -8 144 7 14 36 38 65 53 41 22 52 34 52 53 0 34 -26 30 -39 -6 -11 -32 -40 -40 -60 -16 -27 33 30 79 88 71 19 -2 44 -14 57 -26z m142 16 c7 -14 12 -14 36 -1 32 16 63 11 76 -13 4 -9 10 -81 12 -159 l3 -142 -42 0 -43 0 -2 93 c0 50 0 104 1 119 2 31 -16 71 -28 63 -8 -4 -7 -89 3 -227 l3 -48 -51 0 -51 0 0 165 0 165 37 0 c23 0 40 -6 46 -15z m286 -7 c11 -16 13 -25 4 -35 -16 -19 -27 -16 -38 12 -11 28 -28 33 -36 10 -4 -10 11 -33 39 -64 48 -51 63 -92 52 -143 -15 -73 -64 -109 -117 -87 -30 12 -46 45 -30 61 15 15 43 2 49 -22 3 -11 11 -20 19 -20 24 0 27 22 5 48 -82 102 -83 104 -78 161 3 44 9 59 31 78 35 30 80 30 100 1z m510 -70 c3 -50 6 -116 6 -145 0 -39 4 -53 13 -51 9 4 12 42 12 146 l0 142 43 0 42 0 0 -149 c0 -82 3 -156 6 -165 5 -13 -2 -16 -39 -16 -25 0 -47 5 -49 11 -3 9 -9 9 -25 0 -12 -6 -31 -11 -42 -11 -39 0 -49 36 -53 188 l-3 142 41 0 41 0 7 -92z m792 67 c19 -19 24 -34 22 -58 -3 -30 -5 -32 -43 -32 l-40 0 0 -95 c0 -78 3 -95 15 -95 9 0 16 11 18 27 6 55 52 62 52 8 0 -50 -76 -79 -132 -49 -74 39 -75 265 -1 308 33 19 82 13 109 -14z m132 10 c7 -14 12 -14 36 -1 32 16 63 11 76 -13 4 -9 10 -81 12 -159 l3 -142 -42 0 -43 0 -2 93 c0 50 0 104 1 119 2 31 -16 71 -28 63 -8 -4 -7 -89 3 -227 l3 -48 -51 0 -51 0 0 165 0 165 37 0 c23 0 40 -6 46 -15z m681 0 c59 -30 81 -167 41 -251 -25 -50 -69 -76 -111 -64 -42 12 -49 19 -70 64 -35 78 -19 197 34 242 33 27 66 30 106 9z m241 -5 c35 -35 17 -100 -24 -84 -11 4 -16 18 -16 46 0 21 -4 37 -8 34 -13 -8 -23 -246 -11 -268 14 -25 29 -13 29 23 0 26 3 30 22 27 30 -4 33 -29 8 -61 -31 -39 -82 -37 -120 3 -64 69 -50 236 24 281 40 24 71 24 96 -1z m360 5 c0 -8 4 -15 9 -15 5 0 14 7 21 15 29 35 71 1 52 -41 -16 -33 -41 -42 -58 -19 -11 15 -13 -1 -11 -101 2 -66 7 -127 11 -136 7 -16 2 -18 -45 -18 l-54 0 0 165 0 165 38 0 c26 0 37 -4 37 -15z m194 -77 c3 -50 6 -116 6 -145 0 -39 4 -53 13 -51 9 4 12 42 12 146 l0 142 43 0 42 0 0 -149 c0 -82 3 -156 6 -165 5 -13 -2 -16 -39 -16 -25 0 -47 5 -49 11 -3 9 -9 9 -25 0 -12 -6 -31 -11 -42 -11 -39 0 -49 36 -53 188 l-3 142 41 0 41 0 7 -92z m572 61 c28 -26 33 -51 36 -192 l3 -107 -42 0 c-24 0 -43 5 -46 13 -4 10 -7 10 -18 0 -23 -22 -66 -15 -88 13 -24 31 -28 104 -8 144 7 14 36 38 65 53 41 22 52 34 52 53 0 34 -26 30 -39 -6 -11 -32 -40 -40 -60 -16 -27 33 30 79 88 71 19 -2 44 -14 57 -26z m134 16 c0 -8 4 -15 9 -15 5 0 14 7 21 15 29 35 71 1 52 -41 -16 -33 -41 -42 -58 -19 -11 15 -13 -1 -11 -101 2 -66 7 -127 11 -136 7 -16 2 -18 -45 -18 l-54 0 0 165 0 165 38 0 c26 0 37 -4 37 -15z m198 0 c7 -14 12 -14 36 -1 32 16 63 11 76 -13 4 -9 10 -81 12 -159 l3 -142 -42 0 -43 0 -2 93 c0 50 0 104 1 119 2 31 -16 71 -28 63 -8 -4 -7 -89 3 -227 l3 -48 -51 0 -51 0 0 165 0 165 37 0 c23 0 40 -6 46 -15z m328 -16 c28 -26 33 -51 36 -192 l3 -107 -42 0 c-24 0 -43 5 -46 13 -4 10 -7 10 -18 0 -23 -22 -66 -15 -88 13 -24 31 -28 104 -8 144 7 14 36 38 65 53 41 22 52 34 52 53 0 34 -26 30 -39 -6 -11 -32 -40 -40 -60 -16 -27 33 30 79 88 71 19 -2 44 -14 57 -26z m-5209 -286 c-3 -10 -5 -4 -5 12 0 17 2 24 5 18 2 -7 2 -21 0 -30z m-63 10 c3 -10 10 -47 17 -83 6 -36 15 -69 20 -75 4 -5 10 -27 14 -48 4 -22 12 -36 19 -34 12 4 10 56 -4 72 -12 15 -39 126 -29 119 5 -3 9 1 10 8 0 7 7 -16 14 -50 8 -35 19 -70 25 -77 6 -8 10 -29 8 -47 -3 -28 -7 -33 -32 -36 -23 -3 -28 0 -23 12 5 12 0 16 -23 16 -35 0 -38 10 -9 28 20 13 20 14 -15 53 -36 39 -45 59 -26 59 6 0 15 -11 20 -25 5 -14 12 -25 15 -25 9 0 -7 54 -19 63 -8 6 -8 10 0 13 8 3 9 16 4 39 -8 35 4 50 14 18z"
       id="path4"
       fill="#000000" />
    <path
       d="M377 903 c-4 -3 -7 -11 -7 -17 0 -6 5 -5 12 2 6 6 9 14 7 17 -3 3 -9 2 -12 -2z"
       id="path6"
       fill="#000000" />
    <path
       d="M326 855 c-10 -7 -16 -19 -14 -25 2 -6 14 0 27 14 26 28 18 35 -13 11z"
       id="path8"
       fill="#000000" />
    <path
       d="M130 816 c0 -19 27 -46 46 -46 11 0 14 8 12 28 -2 21 -9 28 -30 30 -20 2 -28 -1 -28 -12z"
       id="path10"
       fill="#000000" />
    <path
       d="M187 764 c-9 -10 2 -24 19 -24 8 0 14 7 14 15 0 15 -21 21 -33 9z"
       id="path12"
       fill="#000000" />
    <path
       d="M347 753 c-12 -12 -7 -70 6 -82 11 -8 25 -3 63 24 51 37 47 45 -11 21 l-35 -15 15 23 c8 12 12 26 8 29 -8 9 -38 9 -46 0z"
       id="path14"
       fill="#000000" />
    <path
       d="M220 700 c0 -10 29 -68 50 -100 6 -8 15 -28 21 -45 11 -29 12 -27 24 43 18 102 14 112 -46 112 -27 0 -49 -5 -49 -10z"
       id="path16"
       fill="#000000" />
    <path
       d="M210 641 c0 -5 7 -14 15 -21 16 -14 18 -10 9 14 -6 17 -24 22 -24 7z"
       id="path18"
       fill="#000000" />
    <path
       d="M330 610 c-14 -26 -8 -82 9 -88 9 -3 11 10 8 47 -3 31 0 52 7 55 7 3 7 5 -1 5 -7 1 -17 -8 -23 -19z"
       id="path20"
       fill="#000000" />
    <path
       d="M392 560 c-21 -13 -30 -25 -26 -35 8 -19 17 -19 54 0 33 17 37 27 17 43 -10 8 -21 6 -45 -8z"
       id="path22"
       fill="#000000" />
    <path
       d="M260 561 c0 -38 75 -95 117 -88 36 5 21 22 -30 32 -38 7 -55 16 -63 33 -14 29 -24 38 -24 23z"
       id="path24"
       fill="#000000" />
    <path
       d="M705 510 c0 -136 3 -180 12 -180 20 0 24 36 21 200 -3 129 -6 155 -18 158 -13 2 -15 -22 -15 -178z"
       id="path26"
       fill="#000000" />
    <path
       d="M2228 583 c-3 -4 -3 -59 0 -121 3 -78 8 -112 16 -109 15 5 15 212 0 227 -7 7 -14 8 -16 3z"
       id="path28"
       fill="#000000" />
    <path
       d="M2468 583 c-3 -4 -3 -59 0 -121 3 -78 8 -112 16 -109 15 5 15 212 0 227 -7 7 -14 8 -16 3z"
       id="path30"
       fill="#000000" />
    <path
       d="M3274 580 c0 -76 4 -110 12 -110 18 0 24 25 24 106 0 72 -11 114 -29 114 -4 0 -8 -49 -7 -110z"
       id="path32"
       fill="#000000" />
    <path
       d="M966 498 c-10 -38 -7 -136 5 -143 15 -10 16 -7 21 83 3 60 1 82 -7 82 -7 0 -15 -10 -19 -22z"
       id="path34"
       fill="#000000" />
    <path
       d="M2704 596 c-6 -26 1 -46 16 -46 12 0 22 34 14 54 -9 23 -23 20 -30 -8z"
       id="path36"
       fill="#000000" />
    <path
       d="M3522 493 c-2 -134 2 -163 21 -163 9 0 12 34 11 123 -1 159 -2 167 -17 167 -10 0 -14 -30 -15 -127z"
       id="path38"
       fill="#000000" />
    <path
       d="M4876 498 c-10 -38 -7 -136 5 -143 15 -10 16 -7 21 83 3 60 1 82 -7 82 -7 0 -15 -10 -19 -22z"
       id="path40"
       fill="#000000" />
    <path
       d="M5536 498 c-10 -38 -7 -136 5 -143 15 -10 16 -7 21 83 3 60 1 82 -7 82 -7 0 -15 -10 -19 -22z"
       id="path42"
       fill="#000000" />
    <path
       d="M365 130 c-3 -5 -1 -10 4 -10 6 0 11 5 11 10 0 6 -2 10 -4 10 -3 0 -8 -4 -11 -10z"
       id="path44"
       fill="#000000" />
  </g>
  <metadata
     id="metadata877"
     fill="#00abd6">
    <rdf:RDF>
      <cc:Work
         rdf:about="">
        <dc:title></dc:title>
        <dc:format>image/svg+xml</dc:format>
        <dc:type
           rdf:resource="http://purl.org/dc/dcmitype/StillImage" />
      </cc:Work>
    </rdf:RDF>
  </metadata>
</svg>
