<?xml version="1.0" encoding="utf-8"?>
          <!-- Generator: Adobe Illustrator 27.1.1, SVG Export Plug-In . SVG Version: 6.00 Build 0)  -->
          <svg version="1.2" baseProfile="tiny" id="Rockrullarna"
            xmlns="http://www.w3.org/2000/svg" xmlns:xlink="http://www.w3.org/1999/xlink" x="0px" y="0px" viewBox="0 0 370 370"
            overflow="visible" xml:space="preserve">
          <g id="Bakgrund">
            <g>
              <rect x="20" y="0.1" width="330" height="369"/>
              <path d="M368.6,0.6v368H0.6V0.6H368.6 M369.6-0.4h-370v370h370V-0.4L369.6-0.4z"/>
            </g>
          </g>
          <g id="Logga">
            <path fill="#00ABD6" d="M125.79,335.73c-0.43,0.34-0.89,0.57-1.41,0.76c-0.54,0.19-0.96,0.17-1.42-0.07
              c-0.33-0.17-0.47-0.29-1.27-1.18c-0.22-0.22-0.54-0.48-0.78-0.6c-0.37-0.19-0.67-0.19-1.23,0.03l-0.2,0.07l-0.23-0.4
              c1.26-0.87,2.07-1.07,2.8-0.71c0.28,0.14,0.49,0.32,1.02,0.89c0.47,0.5,0.78,0.75,1.03,0.88c0.4,0.2,0.85,0.19,1.43-0.06
              L125.79,335.73L125.79,335.73z"/>
            <path fill="#00ABD6" d="M147.23,330.8c1.4,0.49,1.96,1.15,1.66,1.99c-0.27,0.76-1.03,0.93-2.28,0.49c-1.42-0.49-1.98-1.15-1.7-1.96
              C145.18,330.53,145.96,330.35,147.23,330.8L147.23,330.8z M142.07,328.96c0.6,0.21,1.04,0.48,1.32,0.83
              c0.29,0.35,0.36,0.72,0.22,1.12c-0.13,0.38-0.42,0.61-0.87,0.69c-0.45,0.08-0.96,0.02-1.53-0.18c-0.59-0.2-1.03-0.48-1.32-0.84
              c-0.29-0.35-0.37-0.74-0.22-1.15C139.94,328.66,140.74,328.5,142.07,328.96L142.07,328.96z M143.37,336.4
              c0.35-1.01,0.2-1.62-0.45-1.85c-0.27-0.1-0.55-0.05-0.83,0.13c-0.28,0.18-0.48,0.45-0.61,0.82l-5.07,14.57
              c-0.17,0.49-0.2,0.9-0.1,1.22c0.1,0.32,0.29,0.53,0.56,0.62c0.3,0.1,0.59,0.05,0.86-0.17c0.28-0.22,0.48-0.5,0.6-0.85L143.37,336.4
              L143.37,336.4z M143.41,333.2c1.18,0.41,2.07,1.16,2.66,2.26c0.59,1.09,0.9,2.47,0.94,4.12c0.04,1.65-0.34,3.63-1.14,5.92
              c-0.96,2.75-2.3,4.89-4.03,6.41c-1.73,1.52-3.56,1.95-5.5,1.27c-1.84-0.64-2.97-2.07-3.39-4.29c-0.42-2.22-0.12-4.8,0.9-7.73
              c1.04-3,2.44-5.24,4.17-6.72C139.76,332.98,141.56,332.56,143.41,333.2L143.41,333.2z"/>
            <path fill="#00ABD6" d="M160.85,339.81l-1.63,8.46l0.82,0.16c0.83,0.16,1.4-0.59,1.72-2.26l0.78-4.04c0.13-0.7,0.1-1.22-0.11-1.56
              c-0.21-0.34-0.59-0.56-1.15-0.67L160.85,339.81L160.85,339.81z M158.95,349.73l-1.2,6.23c-0.06,0.29-0.08,0.49-0.06,0.6
              c0.02,0.11,0.1,0.23,0.25,0.37c0.19,0.18,0.26,0.44,0.2,0.78c-0.09,0.49-0.2,0.78-0.3,0.87c-0.11,0.1-0.28,0.12-0.51,0.08
              l-5.3-1.02c-0.3-0.06-0.41-0.3-0.33-0.74c0.08-0.42,0.15-0.69,0.19-0.8c0.05-0.12,0.15-0.19,0.3-0.21c0.5-0.1,0.8-0.41,0.9-0.95
              l2.83-14.71c0.1-0.54-0.03-0.91-0.41-1.11c-0.19-0.1-0.3-0.2-0.34-0.27c-0.04-0.08-0.02-0.28,0.04-0.6
              c0.12-0.65,0.36-0.94,0.71-0.87l6.94,1.34c1.38,0.27,2.51,1.02,3.4,2.27c0.88,1.25,1.16,2.74,0.82,4.49
              c-0.48,2.49-2.06,3.86-4.74,4.14c2.22,0.96,3.1,2.65,2.63,5.08l-0.58,2.99c-0.05,0.25,0.01,0.46,0.18,0.62
              c0.2,0.19,0.27,0.45,0.21,0.76c-0.09,0.49-0.18,0.77-0.25,0.85c-0.08,0.08-0.24,0.1-0.49,0.05l-3.36-0.65
              c-0.4-0.08-0.69-0.37-0.86-0.87c-0.17-0.51-0.19-1.09-0.06-1.76l0.97-5.06c0.19-0.99-0.21-1.58-1.21-1.77L158.95,349.73
              L158.95,349.73z"/>
            <path fill="#00ABD6" d="M180.27,342.34l-0.42,7.29l0.87,0.05c0.24,0.01,0.42-0.03,0.53-0.12c0.12-0.1,0.21-0.31,0.29-0.65
              c0.14-0.6,0.24-0.95,0.31-1.07c0.07-0.12,0.17-0.17,0.31-0.16c0.67,0.04,1.05,0.09,1.14,0.15c0.09,0.06,0.12,0.28,0.1,0.65
              l-0.25,4.25c-0.02,0.26-0.07,0.43-0.16,0.51c-0.09,0.08-0.36,0.1-0.8,0.08c-0.29-0.02-0.48-0.08-0.57-0.19
              c-0.09-0.11-0.17-0.42-0.24-0.92c-0.07-0.46-0.14-0.74-0.23-0.85c-0.08-0.11-0.22-0.17-0.41-0.18l-0.99-0.06l-0.51,8.79l0.68,0.04
              c0.42,0.02,0.71-0.08,0.88-0.3c0.17-0.23,0.46-0.88,0.88-1.98c0.17-0.46,0.34-0.76,0.5-0.89c0.16-0.14,0.43-0.19,0.82-0.17
              c0.53,0.03,0.78,0.22,0.76,0.56c-0.01,0.1-0.03,0.25-0.08,0.44l-0.64,2.87c-0.11,0.52-0.2,0.84-0.26,0.94
              c-0.06,0.1-0.24,0.15-0.53,0.13l-8.51-0.5c-0.21-0.01-0.35-0.07-0.4-0.17c-0.05-0.1-0.07-0.39-0.04-0.85
              c0.02-0.3,0.18-0.51,0.5-0.62c0.48-0.17,0.73-0.42,0.75-0.76l0.93-15.91c0-0.16-0.18-0.33-0.55-0.52
              c-0.25-0.13-0.39-0.24-0.43-0.34c-0.04-0.1-0.05-0.35-0.03-0.74c0.02-0.33,0.06-0.53,0.11-0.59c0.06-0.06,0.21-0.08,0.45-0.07
              l8.14,0.47c0.2,0.01,0.35,0.05,0.44,0.13c0.09,0.07,0.15,0.24,0.19,0.5l0.46,3.33c0.02,0.17,0.03,0.29,0.03,0.35
              c-0.01,0.23-0.23,0.33-0.64,0.31c-0.46-0.03-0.77-0.1-0.92-0.21c-0.15-0.12-0.28-0.39-0.4-0.82c-0.22-0.78-0.41-1.33-0.59-1.63
              c-0.17-0.31-0.38-0.47-0.61-0.48L180.27,342.34L180.27,342.34z"/>
            <path fill="#00ABD6" d="M197.08,350.27l0.69,9.52c0.78-0.06,1.3-0.2,1.55-0.43c0.25-0.23,0.38-0.66,0.38-1.3
              c0-0.63-0.05-1.7-0.16-3.19c-0.02-0.31-0.09-1-0.19-2.08c-0.1-1.08-0.2-1.73-0.3-1.95c-0.09-0.22-0.24-0.38-0.44-0.49
              c-0.2-0.11-0.49-0.16-0.86-0.13L197.08,350.27L197.08,350.27z M196.49,342.12l0.48,6.69l0.68-0.05c0.42-0.03,0.75-0.18,0.97-0.44
              c0.22-0.26,0.33-0.68,0.33-1.26c0-0.58-0.04-1.3-0.1-2.18c-0.09-1.22-0.26-2.01-0.52-2.35c-0.26-0.34-0.65-0.5-1.17-0.46
              L196.49,342.12L196.49,342.12z M200.37,349.29c1.59,0.43,2.71,1.03,3.36,1.79c0.65,0.76,1.02,1.85,1.12,3.26
              c0.16,2.15-0.27,3.79-1.27,4.92c-1,1.13-2.64,1.78-4.9,1.94l-6.23,0.45c-0.26,0.02-0.39-0.1-0.41-0.37l-0.06-0.77
              c-0.02-0.21,0.09-0.38,0.31-0.5c0.47-0.26,0.69-0.62,0.65-1.06l-1.11-15.39c-0.01-0.21-0.06-0.36-0.13-0.43
              c-0.07-0.07-0.29-0.18-0.64-0.31c-0.18-0.06-0.28-0.14-0.32-0.23c-0.04-0.09-0.07-0.32-0.09-0.68c-0.02-0.32,0.01-0.54,0.09-0.66
              c0.08-0.12,0.23-0.18,0.45-0.2l6.99-0.51c1.68-0.12,3.01,0.21,3.97,1.01c0.96,0.79,1.49,1.85,1.59,3.18
              c0.08,1.11-0.21,2.06-0.86,2.86C202.21,348.39,201.38,348.96,200.37,349.29L200.37,349.29z"/>
            <path fill="#00ABD6" d="M216.02,339.43l1.85,8.41l0.81-0.18c0.82-0.18,1.05-1.1,0.69-2.76l-0.88-4.02
              c-0.15-0.7-0.39-1.16-0.72-1.39c-0.33-0.23-0.77-0.28-1.32-0.16L216.02,339.43L216.02,339.43z M218.18,349.29l1.36,6.19
              c0.06,0.29,0.13,0.48,0.18,0.57c0.06,0.09,0.19,0.17,0.38,0.24c0.25,0.09,0.41,0.31,0.49,0.64c0.11,0.48,0.13,0.79,0.07,0.92
              c-0.06,0.13-0.21,0.22-0.44,0.27l-5.27,1.16c-0.3,0.07-0.5-0.12-0.59-0.55c-0.09-0.42-0.14-0.69-0.14-0.81
              c0-0.13,0.06-0.23,0.19-0.31c0.42-0.28,0.57-0.69,0.45-1.23l-3.22-14.63c-0.12-0.54-0.39-0.83-0.82-0.86
              c-0.21-0.02-0.35-0.06-0.42-0.12c-0.06-0.06-0.13-0.24-0.2-0.57c-0.14-0.64-0.04-1.01,0.31-1.08l6.9-1.52
              c1.37-0.3,2.71-0.05,4.02,0.74c1.3,0.8,2.15,2.06,2.53,3.8c0.54,2.47-0.36,4.36-2.72,5.68c2.42,0,3.89,1.21,4.42,3.62l0.65,2.97
              c0.05,0.25,0.19,0.42,0.41,0.5c0.26,0.1,0.42,0.3,0.49,0.61c0.11,0.48,0.14,0.78,0.1,0.88c-0.04,0.1-0.18,0.18-0.43,0.24
              l-3.35,0.74c-0.4,0.09-0.78-0.07-1.14-0.46c-0.36-0.4-0.61-0.93-0.76-1.59l-1.11-5.03c-0.22-0.98-0.82-1.36-1.81-1.15
              L218.18,349.29L218.18,349.29z"/>
            <path fill="#00ABD6" d="M236.9,334.48c-0.38-1-0.89-1.37-1.53-1.13c-0.27,0.1-0.45,0.31-0.55,0.63c-0.1,0.32-0.08,0.66,0.06,1.02
              l5.46,14.43c0.18,0.49,0.42,0.82,0.71,1c0.29,0.18,0.56,0.22,0.82,0.12c0.29-0.11,0.48-0.34,0.55-0.69
              c0.07-0.35,0.05-0.69-0.08-1.03L236.9,334.48L236.9,334.48z M234.89,332c1.17-0.44,2.33-0.43,3.49,0.03
              c1.15,0.46,2.28,1.31,3.37,2.56c1.09,1.25,2.06,3,2.92,5.28c1.03,2.73,1.37,5.23,1.03,7.5c-0.35,2.28-1.48,3.78-3.4,4.5
              c-1.83,0.69-3.61,0.32-5.36-1.12c-1.75-1.44-3.17-3.6-4.26-6.51c-1.12-2.97-1.49-5.58-1.11-7.83
              C231.95,334.17,233.05,332.7,234.89,332L234.89,332z"/>
            <path fill="#00ABD6" d="M258.19,331.02c0.03,0.55-0.03,1.06-0.18,1.59c-0.15,0.56-0.41,0.88-0.86,1.13
              c-0.32,0.17-0.51,0.22-1.69,0.37c-0.31,0.05-0.7,0.17-0.93,0.3c-0.37,0.2-0.54,0.44-0.67,1.03l-0.06,0.2l-0.45-0.04
              c0-1.53,0.3-2.31,1.02-2.7c0.28-0.15,0.54-0.22,1.31-0.33c0.68-0.1,1.06-0.21,1.31-0.35c0.39-0.21,0.64-0.59,0.76-1.21
              L258.19,331.02L258.19,331.02z"/>
            <path fill="#00ABD6" d="M269.94,182.33c0.91-0.83,1.36-2.14,1.36-3.9c0-2.58-0.95-3.87-2.86-3.87c-0.86,0-1.54,0.29-2.06,0.87
              c-0.52,0.58-0.78,1.23-0.78,1.94c0,0.75,0.31,1.5,0.94,2.24C267.18,180.36,268.31,181.26,269.94,182.33L269.94,182.33z
              M265.8,186.91c-0.52,0.44-0.88,0.99-1.1,1.63c-0.21,0.64-0.32,1.6-0.32,2.87c0,1.82,0.27,3.15,0.8,4
              c0.54,0.85,1.41,1.27,2.64,1.27c0.94,0,1.73-0.29,2.35-0.87c0.63-0.58,0.94-1.38,0.94-2.41c0-0.95-0.23-1.76-0.68-2.41
              c-0.45-0.65-1.25-1.42-2.39-2.3L265.8,186.91L265.8,186.91z M264.21,185.54c-2.06-1.71-3.08-3.84-3.08-6.39
              c0-2.04,0.63-3.67,1.89-4.89c1.26-1.22,2.94-1.84,5.04-1.84c2.14,0,3.83,0.59,5.05,1.76c1.22,1.18,1.83,2.57,1.83,4.18
              c0,2.15-1.09,3.89-3.28,5.25c1.35,1.07,2.31,2.15,2.87,3.25c0.56,1.09,0.84,2.37,0.84,3.82c0,2.57-0.75,4.6-2.25,6.1
              c-1.5,1.5-3.31,2.26-5.45,2.26c-2.06,0-3.76-0.7-5.11-2.09s-2.02-3.1-2.02-5.14C260.56,189.16,261.78,187.07,264.21,185.54
              L264.21,185.54z"/>
            <path fill="#00ABD6" d="M293.98,184.7c3.87,1.01,5.81,3.28,5.81,6.82c0,1.5-0.36,2.82-1.07,3.96s-1.7,2.02-2.95,2.64
              c-1.25,0.62-2.58,0.93-3.99,0.93c-1.89,0-3.41-0.58-4.55-1.75c-1.14-1.16-1.71-2.52-1.71-4.07c0-0.78,0.2-1.44,0.6-2
              c0.4-0.55,0.97-0.83,1.7-0.83c0.71,0,1.27,0.24,1.66,0.73c0.39,0.49,0.58,1.09,0.58,1.8c0,0.29-0.06,0.78-0.18,1.48
              c-0.07,0.3-0.1,0.58-0.1,0.83c0,0.47,0.15,0.86,0.44,1.19c0.29,0.33,0.7,0.5,1.22,0.5c0.68,0,1.19-0.28,1.52-0.85
              c0.33-0.57,0.49-1.48,0.49-2.74c0-0.32-0.01-0.65-0.03-0.97l-0.19-4.01c-0.16-0.79-0.43-1.37-0.8-1.74
              c-0.37-0.37-0.75-0.59-1.16-0.67c-0.41-0.08-1.05-0.12-1.94-0.12l-0.47,0.02c-0.32,0-0.5-0.16-0.52-0.47l-0.03-0.71
              c-0.01-0.08-0.02-0.15-0.02-0.23c0-0.49,0.24-0.73,0.73-0.73c1.23,0,2.12-0.11,2.65-0.32s0.9-0.53,1.08-0.97
              c0.18-0.43,0.28-1.38,0.28-2.84c0-2.07-0.11-3.44-0.32-4.12c-0.22-0.68-0.66-1.02-1.33-1.02c-0.41,0-0.77,0.14-1.08,0.41
              c-0.31,0.27-0.46,0.62-0.46,1.04c0,0.28,0.05,0.69,0.15,1.22c0.14,0.75,0.21,1.31,0.21,1.69c0,0.63-0.21,1.13-0.63,1.49
              c-0.42,0.37-0.93,0.55-1.51,0.55c-0.72,0-1.29-0.29-1.7-0.86c-0.41-0.57-0.61-1.29-0.61-2.14c0-1.49,0.58-2.8,1.74-3.93
              c1.16-1.13,2.72-1.69,4.69-1.69c2.27,0,4,0.69,5.19,2.08c1.19,1.39,1.79,2.91,1.79,4.58c0,1.3-0.4,2.46-1.2,3.48
              c-0.8,1.02-1.96,1.76-3.49,2.2L293.98,184.7L293.98,184.7z"/>
            <path fill="#00ABD6" d="M76.05,179.98c-0.97,0.34-1.8,0.5-2.48,0.5c-0.34,0-0.5-0.18-0.5-0.55v-0.65c0-0.25,0.05-0.44,0.15-0.56
              c0.1-0.12,0.34-0.26,0.73-0.41c0.52-0.22,1.23-0.65,2.13-1.32c0.9-0.66,1.77-1.54,2.63-2.65c0.66-0.85,1.05-1.32,1.17-1.39
              c0.12-0.07,0.32-0.11,0.62-0.11h1.35v23.49c0,0.24,0.18,0.45,0.55,0.63c0.31,0.15,0.51,0.31,0.58,0.48
              c0.07,0.17,0.11,0.61,0.11,1.32c0,0.28-0.19,0.42-0.57,0.42h-7.44c-0.31,0-0.51-0.05-0.58-0.15c-0.07-0.1-0.11-0.34-0.11-0.71
              c0-0.54,0.03-0.88,0.09-1.01c0.06-0.13,0.28-0.25,0.67-0.37c0.61-0.18,0.91-0.45,0.91-0.8V179.98L76.05,179.98z"/>
            <path fill="#00ABD6" d="M102.5,176.3c0-0.94-0.39-1.41-1.17-1.41c-0.77,0-1.15,0.52-1.15,1.56v11.64c0,0.42,0.1,0.77,0.31,1.05
              c0.21,0.28,0.47,0.41,0.8,0.41c0.38,0,0.68-0.18,0.89-0.54c0.22-0.36,0.32-0.76,0.32-1.22V176.3L102.5,176.3z M102.5,190.57
              c-0.97,1.08-2.05,1.62-3.23,1.62c-1.45,0-2.71-0.77-3.77-2.31c-1.07-1.54-1.6-3.7-1.6-6.47c0-1.6,0.24-3.2,0.73-4.81
              c0.49-1.6,1.28-2.95,2.38-4.06c1.1-1.1,2.56-1.66,4.38-1.66c2.31,0,4.13,0.94,5.46,2.81c1.34,1.87,2,5.05,2,9.55
              c0,5.11-1.08,8.76-3.25,10.95c-2.16,2.19-5.01,3.29-8.52,3.29c-0.64,0-1.02-0.04-1.15-0.12c-0.13-0.08-0.19-0.31-0.19-0.69
              c0-0.6,0.03-0.97,0.11-1.12c0.07-0.15,0.19-0.24,0.37-0.26c1.61-0.18,2.84-0.45,3.68-0.81c0.84-0.36,1.49-0.93,1.96-1.72
              c0.47-0.79,0.71-1.83,0.71-3.12C102.55,191.4,102.53,191.04,102.5,190.57L102.5,190.57z"/>
            <path fill-rule="evenodd" fill="#00ABD6" d="M152.77,134.7c0.61,0.35,1.52,0.8,2.67,1.11c0.91,0.25,1.79,0.3,3.52,0.39
              c2.69,0.15,3.25,0.05,3.36-0.25c0.06-0.14-0.02-0.24-0.21-0.71c0,0-0.34-0.84-0.6-2.01c-0.19-0.84-0.21-1.52-0.22-1.94
              c-0.01-0.35-0.02-0.87,0.07-1.54c0.17-1.29,0.3-1.8,0.3-1.8c0.09-0.37,0.17-0.59,0.09-0.88c-0.1-0.37-0.4-0.61-0.62-0.75
              C157.32,128.53,151.94,128.22,152.77,134.7L152.77,134.7z M152.77,110.62c-5,1.83-8.3-0.8-11.52,3.14
              c3.31,6.12,2.99,15.85,13.61,14.66C157.05,122.12,155.51,114.96,152.77,110.62L152.77,110.62z M211.4,135.74
              c1.75,1.39,3.51,2.77,7.33,2.09C218.13,135.21,211.83,132.26,211.4,135.74L211.4,135.74z M188.37,170.29
              c2.18-2.08,0.03-4.47-2.09-5.24c-3,7.55-9.13,17.32-3.14,25.13c-5.15-0.85,1.51,10.1,6.28,9.42c-5.57-6.23,0.82-14.64-5.24-23.03
              c1.44-0.05,2.3,0.49,3.14,1.05C188.74,173.16,182.66,168.15,188.37,170.29L188.37,170.29z M168.48,172.39
              c9.11,3.11,2.55,21.88,12.56,24.08c-5.51-19.98,6.63-31.43,0-51.3c-10.19,1.39-14.28-2.06-21.99,1.05
              C162.35,154.79,166.27,162.73,168.48,172.39L168.48,172.39z M166.38,175.53c2.25-3.5-1.86-8.98-3.14-14.66
              c-1.98-0.23-2.31,1.18-4.19,1.05C160.1,167.85,162.2,172.73,166.38,175.53L166.38,175.53z M189.42,149.35
              c2.12-5.74,10.99-9.71,6.28-18.85c-1.69-1.71-4.38,0.93-8.38,0c-5.16,6.03-3.86,23.93,2.09,28.27
              c8.61-3.93,13.95-13.94,21.32-18.13c-1.5-1.21-3.29-2.88-4.27-3.51C205.27,139.42,197.65,141.69,189.42,149.35L189.42,149.35z
              M196,314.35c-0.07,0.15-0.17,0.46-0.04,0.71c0.07,0.15,0.28,0.38,1.06,0.45c2.29,0.19,3.78-0.86,3.78-0.86
              c1.57-1.1,1.98-2.74,2.38-4.23c0.26-0.95,0.88-3.25-0.16-4.16c-0.56-0.48-1.36-0.36-1.47-0.8c-0.1-0.39,0.51-0.62,0.9-1.23
              c0.8-1.23,0.18-3.18-1.18-6.34c-1.11-2.59-1.7-3.69-2.2-4.83c-0.26-0.58-1.85-4.21-2.32-8.67c-0.58-5.4,0.77-8.23-1.2-10.39
              c-0.32-0.35-0.89-0.83-1.94-1.13c1.26-5.11,1.57-8.25-2.09-11.52c1.79-3.68,2.29,2.44,3.14,3.14c3.02-7.94,2.71-14.58,2.43-20.55
              c-0.13-2.69-0.06-4.69-0.56-7.73c-1.27,0.4-1.33,0.61-4.96,0.16c7.64-1.12,4.71-4.55,2.98-11.36c-1.28-4.38,4.64-3.54,0.11-8.68
              c0.46-1.55,1.34,0.41,3.14,0c-0.66-3.91-1.65-6,2.09-7.33c-1.19-3.7-3.24-6.53-3.14-11.52c10.63-0.33,13.85-11.88,6.28-16.75
              c-6.03,3.04-12.24,5.91-14.66,12.56c3.98,1.6,2.21,8.96,8.38,8.38c-1.98,4.5-14.77-1.99-13.61-3.14c-1.52,0.57-5.41-1.22-5.23,1.05
              c-2.99-3.57-5.21-10.49-6.28-17.8c-5.51,2.74-0.11,9.54-1.05,14.66c-7.26-19.96-16.67-37.77-23.03-58.63
              c-0.7-4.54,5.27-2.41,4.19-7.33c-7.07-2-9.13-9.02-11.52-15.7c0.42-6.21,9.71-3.55,12.56-7.33c3.85,3.48,4.77,9.89,4.19,17.8
              c2.32-0.52,4.41-1.27,6.32-2.21c0.45-0.22,0.97-0.47,1.62-0.84c2.32-1.34,3.99-2.96,5.64-4.86c0.82-0.93,1.23-1.49,4.13-5.45
              c3.51-4.8,4.62-6.35,6.29-8.07c0.83-0.86,1.79-1.85,3.16-2.98c0.72-0.6,1.2-1.03,1.91-1.55c0.34-0.25,0.63-0.44,1.43-1.01
              c0.67-0.48,1-0.72,1.07-0.77c1-0.84,0.98-2.31,1.13-3.4c0.3-2.1,1.4-3.87,2.2-4.77c2.03-2.26,5.57-2.73,8.16-2.2
              c1.38,0.28,2.44,0.83,3.11,1.25c-0.21,0.18-1.22,1.02-2.26,1.39c-0.18,0.06-0.51,0.18-0.96,0.22c-0.38,0.04-0.51-0.01-0.86-0.01
              c-0.89-0.01-1.78,0.26-2.12,0.72c-0.05,0.06-0.18,0.24-0.12,0.36c0.05,0.09,0.2,0.1,0.27,0.1c0.35,0.01,0.6-0.2,0.84-0.35
              c0.49-0.32,0.97-0.46,1.22-0.5c0,0,0.01,0,0.01,0c0.49-0.09,1.04,0.01,1.19,0.17c0.26,0.3-0.29,1.39-1.36,2.63
              c-1.35,1.57-2.61,2.3-3.43,2.89c-0.65,0.47-1.21,0.92-5.74,7.97c-1.55,2.42-2.33,3.64-2.71,4.13c-2.14,2.75-4.44,4.54-6.06,5.62
              c1.81-2.74,3.36-5.02,4.52-6.69c7.93-11.48,10.49-13.38,11.72-14.18c2.42-1.57,2.38-1.8,2.35-1.86c-0.06-0.16-0.55-0.14-0.86-0.06
              c-0.34,0.08-0.44,0.22-0.86,0.49c-0.48,0.3-1.06,0.66-1.7,0.58c-0.27-0.03-0.48-0.14-0.61-0.22c0.02-0.25,0.1-0.7,0.41-1.14
              c0.39-0.56,0.93-0.77,1.29-0.91c0.79-0.31,1.32-0.23,1.94-0.29c0.67-0.06,1.63-0.29,2.77-1.05c-0.39-0.13-4.52-1.39-8.11,1.3
              c-2.55,1.92-3.87,5.11-3.44,8.33c-4.93,3.52-10.05,7.05-12.56,12.56c-0.45,0.98,0.66,3.37,0,4.19c-0.5,0.62-1.31-1.97-1.05-2.09
              c-4.29,2.07-7.51,7.48-10.47,13.61c-0.18,0.37-1.34-1.52-1.05-2.09c0.28-0.54-1.39,1.98-1.64,2.63c-0.39,1.01-1.02,2.73-0.77,4.74
              c0.1,0.77,0.31,1.51,0.33,1.56c0.2,0.67,0.35,0.92,0.72,1.85c0.48,1.23,0.72,1.84,0.6,2.09c-0.23,0.45-0.93,0.37-3.55,0.45
              c-2.17,0.06-2.31,0.14-3.54,0.09c-1.54-0.06-2.31-0.09-2.87-0.28c-1.24-0.42-1.52-0.95-2.81-1.36c-0.55-0.18-1.23-0.28-2.17-0.25
              c2,10.22,1.78,22.65,12.56,24.08c-0.79-7.12-6.73-12.48-5.23-18.85c8.1,3.46,15.46,2.38,26.17,2.09c-0.49-1.08-0.77-2.16-0.87-3.22
              c-0.43-4.61,2.44-8.92,5.05-11.43c-3.7,0.17-6.75-0.12-9.7,2.17c-1.07-1.55-4.28-2.25-5.66-6.62c5.19-1.9,7.06-4.95,7.87-9.21
              c2.12,5.35-10.45,10.37-2.14,14.6c8.47-3.35,24.86-4.81,19.72,11.7c4.06-1.5,7.67-4.14,9.39-5.97c1.69,1.99,2.96-6.61,5.64-5.62
              c5.59,2.44,12.83,3.23,12.56,11.52c-5.71-2.17-16.39-3.32-11.66,0.48c-8.37,3.58-17.05,15.67-22.89,22.56
              c0.46,9.19-3.57,13.88-2.09,24.08c3.61-4.77,10.66-6.09,14.66-10.47c8.88,4.03,7.93,22.15-5.24,20.94
              c-0.24,4.08,2.25,5.43,3.14,8.38c0.04,7.37-3.1,11.55-5.24,16.75c1.1,3.19,1.79,9.65,3.33,10.04c0.04,0.01,0.07,0.03,0.08,0.05
              c0.08,0.2-0.66,0.66-1.08,1.3c-0.27,0.41-0.31,0.87-0.39,1.78c-0.05,0.53-0.1,1.46,0.09,2.86c0.13,1,0.32,1.74,0.36,1.88
              c0.41,1.65,0.69,5.48,0.27,10.64c-0.36,4.39-1.29,8.74-1.61,10.19c0,0-1.19,4.11-0.54,7.33c0.18,0.88,0.53,1.67,0.53,1.67
              c0.45,1.03,0.99,1.68,1.14,1.88c0.6,0.78,1.14,2.33,0.83,5.66l0,0c0.09,1.29,0.27,3.08,0.68,5.18c0.2,1,0.19,0.8,1.91,6.79
              c0,0,1.41,4.95,2.99,7.33c0.05,0.08,1.18,1.77,1.36,3.6c0.05,0.51,0.12,1.22-0.24,1.94c-0.24,0.49-0.46,0.55-0.55,0.96
              c-0.14,0.65,0.32,0.87,0.59,1.9c0.18,0.69,0.15,1.26,0.1,2.36c-0.02,0.44-0.06,0.9-0.14,1.39c-0.29,1.86-0.93,3.14-1.16,3.57
              c-0.36,0.67-0.73,1.37-1.5,2.03c-0.68,0.58-1.33,0.85-1.74,1.01c-0.43,0.17-1.27,0.45-2.81,0.55c-1.94,0.12-3.94,0.24-4.57-0.82
              c-0.3-0.5-0.24-1.19-0.24-1.25c0.02-0.24,0.07-0.83,0.48-1.19C194.34,313.89,195.22,313.89,196,314.35L196,314.35z"/>
            <path fill="none" stroke="#00ABD6" stroke-width="0.4618" stroke-miterlimit="10" d="M152.77,134.7c0.61,0.35,1.52,0.8,2.67,1.11
              c0.91,0.25,1.79,0.3,3.52,0.39c2.69,0.15,3.25,0.05,3.36-0.25c0.06-0.14-0.02-0.24-0.21-0.71c0,0-0.34-0.84-0.6-2.01
              c-0.19-0.84-0.21-1.52-0.22-1.94c-0.01-0.35-0.02-0.87,0.07-1.54c0.17-1.29,0.3-1.8,0.3-1.8c0.09-0.37,0.17-0.59,0.09-0.88
              c-0.1-0.37-0.4-0.61-0.62-0.75C157.32,128.53,151.94,128.22,152.77,134.7L152.77,134.7z M152.77,110.62c-5,1.83-8.3-0.8-11.52,3.14
              c3.31,6.12,2.99,15.85,13.61,14.66C157.05,122.12,155.51,114.96,152.77,110.62L152.77,110.62z M211.4,135.74
              c1.75,1.39,3.51,2.77,7.33,2.09C218.13,135.21,211.83,132.26,211.4,135.74L211.4,135.74z M188.37,170.29
              c2.18-2.08,0.03-4.47-2.09-5.24c-3,7.55-9.13,17.32-3.14,25.13c-5.15-0.85,1.51,10.1,6.28,9.42c-5.57-6.23,0.82-14.64-5.24-23.03
              c1.44-0.05,2.3,0.49,3.14,1.05C188.74,173.16,182.66,168.15,188.37,170.29L188.37,170.29z M168.48,172.39
              c9.11,3.11,2.55,21.88,12.56,24.08c-5.51-19.98,6.63-31.43,0-51.3c-10.19,1.39-14.28-2.06-21.99,1.05
              C162.35,154.79,166.27,162.73,168.48,172.39L168.48,172.39z M166.38,175.53c2.25-3.5-1.86-8.98-3.14-14.66
              c-1.98-0.23-2.31,1.18-4.19,1.05C160.1,167.85,162.2,172.73,166.38,175.53L166.38,175.53z M189.42,149.35
              c2.12-5.74,10.99-9.71,6.28-18.85c-1.69-1.71-4.38,0.93-8.38,0c-5.16,6.03-3.86,23.93,2.09,28.27
              c8.61-3.93,13.95-13.94,21.32-18.13c-1.5-1.21-3.29-2.88-4.27-3.51C205.27,139.42,197.65,141.69,189.42,149.35L189.42,149.35z
              M196,314.35c-0.07,0.15-0.17,0.46-0.04,0.71c0.07,0.15,0.28,0.38,1.06,0.45c2.29,0.19,3.78-0.86,3.78-0.86
              c1.57-1.1,1.98-2.74,2.38-4.23c0.26-0.95,0.88-3.25-0.16-4.16c-0.56-0.48-1.36-0.36-1.47-0.8c-0.1-0.39,0.51-0.62,0.9-1.23
              c0.8-1.23,0.18-3.18-1.18-6.34c-1.11-2.59-1.7-3.69-2.2-4.83c-0.26-0.58-1.85-4.21-2.32-8.67c-0.58-5.4,0.77-8.23-1.2-10.39
              c-0.32-0.35-0.89-0.83-1.94-1.13c1.26-5.11,1.57-8.25-2.09-11.52c1.79-3.68,2.29,2.44,3.14,3.14c3.02-7.94,2.71-14.58,2.43-20.55
              c-0.13-2.69-0.06-4.69-0.56-7.73c-1.27,0.4-1.33,0.61-4.96,0.16c7.64-1.12,4.71-4.55,2.98-11.36c-1.28-4.38,4.64-3.54,0.11-8.68
              c0.46-1.55,1.34,0.41,3.14,0c-0.66-3.91-1.65-6,2.09-7.33c-1.19-3.7-3.24-6.53-3.14-11.52c10.63-0.33,13.85-11.88,6.28-16.75
              c-6.03,3.04-12.24,5.91-14.66,12.56c3.98,1.6,2.21,8.96,8.38,8.38c-1.98,4.5-14.77-1.99-13.61-3.14c-1.52,0.57-5.41-1.22-5.23,1.05
              c-2.99-3.57-5.21-10.49-6.28-17.8c-5.51,2.74-0.11,9.54-1.05,14.66c-7.26-19.96-16.67-37.77-23.03-58.63
              c-0.7-4.54,5.27-2.41,4.19-7.33c-7.07-2-9.13-9.02-11.52-15.7c0.42-6.21,9.71-3.55,12.56-7.33c3.85,3.48,4.77,9.89,4.19,17.8
              c2.32-0.52,4.41-1.27,6.32-2.21c0.45-0.22,0.97-0.47,1.62-0.84c2.32-1.34,3.99-2.96,5.64-4.86c0.82-0.93,1.23-1.49,4.13-5.45
              c3.51-4.8,4.62-6.35,6.29-8.07c0.83-0.86,1.79-1.85,3.16-2.98c0.72-0.6,1.2-1.03,1.91-1.55c0.34-0.25,0.63-0.44,1.43-1.01
              c0.67-0.48,1-0.72,1.07-0.77c1-0.84,0.98-2.31,1.13-3.4c0.3-2.1,1.4-3.87,2.2-4.77c2.03-2.26,5.57-2.73,8.16-2.2
              c1.38,0.28,2.44,0.83,3.11,1.25c-0.21,0.18-1.22,1.02-2.26,1.39c-0.18,0.06-0.51,0.18-0.96,0.22c-0.38,0.04-0.51-0.01-0.86-0.01
              c-0.89-0.01-1.78,0.26-2.12,0.72c-0.05,0.06-0.18,0.24-0.12,0.36c0.05,0.09,0.2,0.1,0.27,0.1c0.35,0.01,0.6-0.2,0.84-0.35
              c0.49-0.32,0.97-0.46,1.22-0.5c0,0,0.01,0,0.01,0c0.49-0.09,1.04,0.01,1.19,0.17c0.26,0.3-0.29,1.39-1.36,2.63
              c-1.35,1.57-2.61,2.3-3.43,2.89c-0.65,0.47-1.21,0.92-5.74,7.97c-1.55,2.42-2.33,3.64-2.71,4.13c-2.14,2.75-4.44,4.54-6.06,5.62
              c1.81-2.74,3.36-5.02,4.52-6.69c7.93-11.48,10.49-13.38,11.72-14.18c2.42-1.57,2.38-1.8,2.35-1.86c-0.06-0.16-0.55-0.14-0.86-0.06
              c-0.34,0.08-0.44,0.22-0.86,0.49c-0.48,0.3-1.06,0.66-1.7,0.58c-0.27-0.03-0.48-0.14-0.61-0.22c0.02-0.25,0.1-0.7,0.41-1.14
              c0.39-0.56,0.93-0.77,1.29-0.91c0.79-0.31,1.32-0.23,1.94-0.29c0.67-0.06,1.63-0.29,2.77-1.05c-0.39-0.13-4.52-1.39-8.11,1.3
              c-2.55,1.92-3.87,5.11-3.44,8.33c-4.93,3.52-10.05,7.05-12.56,12.56c-0.45,0.98,0.66,3.37,0,4.19c-0.5,0.62-1.31-1.97-1.05-2.09
              c-4.29,2.07-7.51,7.48-10.47,13.61c-0.18,0.37-1.34-1.52-1.05-2.09c0.28-0.54-1.39,1.98-1.64,2.63c-0.39,1.01-1.02,2.73-0.77,4.74
              c0.1,0.77,0.31,1.51,0.33,1.56c0.2,0.67,0.35,0.92,0.72,1.85c0.48,1.23,0.72,1.84,0.6,2.09c-0.23,0.45-0.93,0.37-3.55,0.45
              c-2.17,0.06-2.31,0.14-3.54,0.09c-1.54-0.06-2.31-0.09-2.87-0.28c-1.24-0.42-1.52-0.95-2.81-1.36c-0.55-0.18-1.23-0.28-2.17-0.25
              c2,10.22,1.78,22.65,12.56,24.08c-0.79-7.12-6.73-12.48-5.23-18.85c8.1,3.46,15.46,2.38,26.17,2.09c-0.49-1.08-0.77-2.16-0.87-3.22
              c-0.43-4.61,2.44-8.92,5.05-11.43c-3.7,0.17-6.75-0.12-9.7,2.17c-1.07-1.55-4.28-2.25-5.66-6.62c5.19-1.9,7.06-4.95,7.87-9.21
              c2.12,5.35-10.45,10.37-2.14,14.6c8.47-3.35,24.86-4.81,19.72,11.7c4.06-1.5,7.67-4.14,9.39-5.97c1.69,1.99,2.96-6.61,5.64-5.62
              c5.59,2.44,12.83,3.23,12.56,11.52c-5.71-2.17-16.39-3.32-11.66,0.48c-8.37,3.58-17.05,15.67-22.89,22.56
              c0.46,9.19-3.57,13.88-2.09,24.08c3.61-4.77,10.66-6.09,14.66-10.47c8.88,4.03,7.93,22.15-5.24,20.94
              c-0.24,4.08,2.25,5.43,3.14,8.38c0.04,7.37-3.1,11.55-5.24,16.75c1.1,3.19,1.79,9.65,3.33,10.04c0.04,0.01,0.07,0.03,0.08,0.05
              c0.08,0.2-0.66,0.66-1.08,1.3c-0.27,0.41-0.31,0.87-0.39,1.78c-0.05,0.53-0.1,1.46,0.09,2.86c0.13,1,0.32,1.74,0.36,1.88
              c0.41,1.65,0.69,5.48,0.27,10.64c-0.36,4.39-1.29,8.74-1.61,10.19c0,0-1.19,4.11-0.54,7.33c0.18,0.88,0.53,1.67,0.53,1.67
              c0.45,1.03,0.99,1.68,1.14,1.88c0.6,0.78,1.14,2.33,0.83,5.66l0,0c0.09,1.29,0.27,3.08,0.68,5.18c0.2,1,0.19,0.8,1.91,6.79
              c0,0,1.41,4.95,2.99,7.33c0.05,0.08,1.18,1.77,1.36,3.6c0.05,0.51,0.12,1.22-0.24,1.94c-0.24,0.49-0.46,0.55-0.55,0.96
              c-0.14,0.65,0.32,0.87,0.59,1.9c0.18,0.69,0.15,1.26,0.1,2.36c-0.02,0.44-0.06,0.9-0.14,1.39c-0.29,1.86-0.93,3.14-1.16,3.57
              c-0.36,0.67-0.73,1.37-1.5,2.03c-0.68,0.58-1.33,0.85-1.74,1.01c-0.43,0.17-1.27,0.45-2.81,0.55c-1.94,0.12-3.94,0.24-4.57-0.82
              c-0.3-0.5-0.24-1.19-0.24-1.25c0.02-0.24,0.07-0.83,0.48-1.19C194.34,313.89,195.22,313.89,196,314.35L196,314.35z"/>
            <path fill="#00ABD6" d="M193.32,307.27c-1.29,0.43-2.42,0.68-3.27,0.82c-2.16,0.36-2.88,0.15-3.38-0.18
              c-0.32-0.21-0.54-0.46-0.67-0.64c0.04-0.13,0.12-0.32,0.26-0.52c0.47-0.68,1.25-0.85,1.65-0.98c1.86-0.63,2.76-2.95,2.92-3.38
              c0.19-0.5,0.44-1.33,0.4-2.45C192.84,301.46,193.42,304.03,193.32,307.27L193.32,307.27z M195.41,293.66
              c-0.93,0.46-1.87,0.92-2.09,2.09c-0.61-0.47-2.06-4.5,1.05-5.23c-6.15,1.51-2.36-10.15-2.09-8.38c-0.86-5.71-7.44-12.14-2.09-16.75
              c-6.99-3.12,0.73-15.31-5.23-14.66c3.22-5.26-2.32-2.27-1.14-9.53c-1.94,1.31-0.41,3.99-1.6,6.08c0.45-0.14,0.99-0.14,1.69,0.13
              c0.1,9.99,1.33,12.69,1.05,19.02c-3.18-1.05-1.34-1.73,0-3.14c-5.19-0.44-0.59,3.14-3.14,4.19c0.27,2.17,4.6,0.29,5.23,2.09
              c-1.15,4.22,1.32,5.98-3.14,7.33c7.2,0.58,2.85,9.89,6.28,15.7c-4.4-6.38-9.26-12.63-7.33-17.8c-6.2,1.6-1.11-4.32-1.05-4.19
              c-0.59-1.18-3.13,1.48-4.19,0c-1.81-2.53-2.09-13.97-2.09-18.85c-0.02-14.6,3.6-33.22,4.19-41.88c0.83-3.44,9.23,2.87,4.19,2.09
              c3.95,0.7,8.79,1.37,13.9,1.87c0.16-2.6-4.02-3.01-4.47-5.01c-0.05,5.9-14.78-3.19-15.7-6.28c-0.04,0.29-0.21,1.44-0.59,1.48
              c-0.08,0.01-0.24-0.04-0.46-0.43c-0.33-0.27-0.73-0.61-1.16-1.03c-0.31-0.3-0.75-0.75-1.23-1.32c-0.83-0.98-0.84-1.21-1.77-2.39
              c-0.47-0.6-1.26-1.55-1.35-1.49c-0.05,0.04,0.18,0.42,0.52,1.06c0.54,1.02,0.66,1.39,1.03,2.12c1.25,2.52,2.87,4.46,3.24,4.89
              c0.26,0.3,0.3,0.34,0.75,0.86c0.9,1.05,1.6,1.94,2.05,2.53c-0.83,5.25-2.16,10.68-3.12,16.44c-0.96,5.74-1.86,10.62-2.74,11.24
              c-0.18,0.59,1.4,0.86,1.31,1.69c-1.92,23.7,4.92,49.02,17.12,56.48c0.02,1.47-0.13,3.41-0.87,5.43c-0.64,1.76-1.33,2.51-1.65,2.82
              c-0.58,0.56-1.32,1.01-1.39,1.05c-0.4,0.24-0.36,0.17-1.24,0.61c-1.2,0.61-1.62,0.93-1.93,1.2c-0.22,0.19-0.39,0.37-0.5,0.49
              c-0.05,0.12-0.1,0.3-0.08,0.52c0.03,0.44,0.32,0.74,0.88,1.27c0.82,0.78,1.23,1.18,1.35,1.25c0.25,0.15,0.81,0.45,1.83,0.61
              c0.45,0.07,1.08,0.13,3.27-0.12c0.56-0.06,1.31-0.16,2.21-0.3c0.24-0.06,0.59-0.12,1.03-0.11c0.41,0.01,0.72,0.02,1.01,0.21
              c0.37,0.25,0.48,0.69,0.54,0.89c0.23,0.91-0.48,2.36-1.82,3.78c0.72,0.01,1.43,0.02,2.15,0.03c0.5-0.58,1.45-1.83,1.64-3.51
              c0.07-0.65,0.13-1.19-0.04-1.85c-0.21-0.8-0.6-1.17-0.45-1.74c0.15-0.56,0.63-0.63,0.58-0.94c-0.09-0.59-1.9-0.4-2.29-1.34
              c-0.04-0.09-0.04-0.35-0.03-0.86c0.01-0.77,0.01-1.15,0.05-1.73c0.05-0.71,0.03-1.09,0-2.86
              C195.44,298.07,195.42,296.18,195.41,293.66L195.41,293.66z"/>
            <path fill="none" stroke="#00ABD6" stroke-width="0.4618" stroke-miterlimit="10" d="M193.32,307.27
              c-1.29,0.43-2.42,0.68-3.27,0.82c-2.16,0.36-2.88,0.15-3.38-0.18c-0.32-0.21-0.54-0.46-0.67-0.64c0.04-0.13,0.12-0.32,0.26-0.52
              c0.47-0.68,1.25-0.85,1.65-0.98c1.86-0.63,2.76-2.95,2.92-3.38c0.19-0.5,0.44-1.33,0.4-2.45
              C192.84,301.46,193.42,304.03,193.32,307.27L193.32,307.27z M195.41,293.66c-0.93,0.46-1.87,0.92-2.09,2.09
              c-0.61-0.47-2.06-4.5,1.05-5.23c-6.15,1.51-2.36-10.15-2.09-8.38c-0.86-5.71-7.44-12.14-2.09-16.75
              c-6.99-3.12,0.73-15.31-5.23-14.66c3.22-5.26-2.32-2.27-1.14-9.53c-1.94,1.31-0.41,3.99-1.6,6.08c0.45-0.14,0.99-0.14,1.69,0.13
              c0.1,9.99,1.33,12.69,1.05,19.02c-3.18-1.05-1.34-1.73,0-3.14c-5.19-0.44-0.59,3.14-3.14,4.19c0.27,2.17,4.6,0.29,5.23,2.09
              c-1.15,4.22,1.32,5.98-3.14,7.33c7.2,0.58,2.85,9.89,6.28,15.7c-4.4-6.38-9.26-12.63-7.33-17.8c-6.2,1.6-1.11-4.32-1.05-4.19
              c-0.59-1.18-3.13,1.48-4.19,0c-1.81-2.53-2.09-13.97-2.09-18.85c-0.02-14.6,3.6-33.22,4.19-41.88c0.83-3.44,9.23,2.87,4.19,2.09
              c3.95,0.7,8.79,1.37,13.9,1.87c0.16-2.6-4.02-3.01-4.47-5.01c-0.05,5.9-14.78-3.19-15.7-6.28c-0.04,0.29-0.21,1.44-0.59,1.48
              c-0.08,0.01-0.24-0.04-0.46-0.43c-0.33-0.27-0.73-0.61-1.16-1.03c-0.31-0.3-0.75-0.75-1.23-1.32c-0.83-0.98-0.84-1.21-1.77-2.39
              c-0.47-0.6-1.26-1.55-1.35-1.49c-0.05,0.04,0.18,0.42,0.52,1.06c0.54,1.02,0.66,1.39,1.03,2.12c1.25,2.52,2.87,4.46,3.24,4.89
              c0.26,0.3,0.3,0.34,0.75,0.86c0.9,1.05,1.6,1.94,2.05,2.53c-0.83,5.25-2.16,10.68-3.12,16.44c-0.96,5.74-1.86,10.62-2.74,11.24
              c-0.18,0.59,1.4,0.86,1.31,1.69c-1.92,23.7,4.92,49.02,17.12,56.48c0.02,1.47-0.13,3.41-0.87,5.43c-0.64,1.76-1.33,2.51-1.65,2.82
              c-0.58,0.56-1.32,1.01-1.39,1.05c-0.4,0.24-0.36,0.17-1.24,0.61c-1.2,0.61-1.62,0.93-1.93,1.2c-0.22,0.19-0.39,0.37-0.5,0.49
              c-0.05,0.12-0.1,0.3-0.08,0.52c0.03,0.44,0.32,0.74,0.88,1.27c0.82,0.78,1.23,1.18,1.35,1.25c0.25,0.15,0.81,0.45,1.83,0.61
              c0.45,0.07,1.08,0.13,3.27-0.12c0.56-0.06,1.31-0.16,2.21-0.3c0.24-0.06,0.59-0.12,1.03-0.11c0.41,0.01,0.72,0.02,1.01,0.21
              c0.37,0.25,0.48,0.69,0.54,0.89c0.23,0.91-0.48,2.36-1.82,3.78c0.72,0.01,1.43,0.02,2.15,0.03c0.5-0.58,1.45-1.83,1.64-3.51
              c0.07-0.65,0.13-1.19-0.04-1.85c-0.21-0.8-0.6-1.17-0.45-1.74c0.15-0.56,0.63-0.63,0.58-0.94c-0.09-0.59-1.9-0.4-2.29-1.34
              c-0.04-0.09-0.04-0.35-0.03-0.86c0.01-0.77,0.01-1.15,0.05-1.73c0.05-0.71,0.03-1.09,0-2.86
              C195.44,298.07,195.42,296.18,195.41,293.66L195.41,293.66z"/>
            <path fill="#00ABD6" d="M89.5,71.92l8.52,9.72l0.94-0.82c0.95-0.83,0.59-2.21-1.09-4.12l-4.07-4.64c-0.71-0.81-1.36-1.24-1.95-1.31
              c-0.59-0.07-1.21,0.18-1.86,0.75L89.5,71.92L89.5,71.92z M99.48,83.31l6.27,7.15c0.29,0.34,0.51,0.54,0.66,0.62
              c0.14,0.08,0.37,0.09,0.68,0.04c0.4-0.06,0.77,0.1,1.1,0.49c0.49,0.56,0.74,0.95,0.75,1.16c0.01,0.22-0.11,0.45-0.38,0.68
              l-6.09,5.33c-0.35,0.3-0.74,0.2-1.17-0.3c-0.42-0.48-0.68-0.8-0.77-0.97c-0.09-0.16-0.08-0.35,0.03-0.55
              c0.34-0.67,0.25-1.32-0.29-1.94l-14.81-16.9c-0.55-0.63-1.11-0.8-1.69-0.53c-0.3,0.13-0.51,0.18-0.63,0.15
              c-0.12-0.03-0.35-0.22-0.68-0.6c-0.65-0.74-0.78-1.29-0.37-1.65l7.98-6.99c1.59-1.39,3.52-2.03,5.81-1.93
              c2.29,0.1,4.31,1.16,6.08,3.17c2.5,2.86,2.68,6,0.53,9.42c3.18-1.75,5.99-1.23,8.43,1.56l3.01,3.43c0.25,0.29,0.55,0.41,0.9,0.36
              c0.41-0.05,0.77,0.1,1.08,0.45c0.49,0.56,0.75,0.92,0.77,1.08c0.03,0.17-0.11,0.37-0.39,0.63l-3.87,3.39
              c-0.46,0.4-1.07,0.48-1.83,0.21c-0.76-0.26-1.47-0.78-2.15-1.55l-5.09-5.81c-0.99-1.13-2.06-1.2-3.21-0.2L99.48,83.31L99.48,83.31z
              "/>
            <path fill="#00ABD6" d="M114.2,62.41c-0.84-1.34-1.65-1.77-2.43-1.28c-0.85,0.53-0.75,1.62,0.28,3.26l8.44,13.51
              c1.02,1.64,1.92,2.22,2.69,1.73c0.86-0.54,0.77-1.62-0.25-3.26L114.2,62.41L114.2,62.41z M110.48,59.06
              c2.04-1.27,4.31-1.42,6.82-0.45c2.51,0.97,4.89,3.26,7.13,6.86c2.42,3.88,3.56,7.25,3.42,10.11c-0.15,2.86-1.25,4.93-3.32,6.22
              c-1.43,0.89-2.96,1.21-4.58,0.96c-1.62-0.25-3.19-0.96-4.71-2.12c-1.52-1.16-3.1-3.06-4.74-5.69c-2.35-3.76-3.47-7.02-3.37-9.76
              C107.23,62.44,108.35,60.4,110.48,59.06L110.48,59.06z"/>
            <path fill="#00ABD6" d="M129.84,53.03l7.59,16.94c0.18,0.41,0.47,0.72,0.85,0.93c0.38,0.21,0.79,0.22,1.22,0.03
              c0.58-0.26,0.87-0.82,0.87-1.68c0-0.86-0.26-1.86-0.77-3.01l-0.24-0.48c-0.28-0.62-0.33-1.04-0.15-1.26
              c0.18-0.22,0.54-0.45,1.09-0.7c0.48-0.21,0.84-0.27,1.1-0.18c0.25,0.1,0.51,0.42,0.76,0.98c0.81,1.81,1.04,3.59,0.7,5.35
              c-0.35,1.76-1.39,3.03-3.13,3.81c-2.04,0.91-4.18,0.64-6.4-0.83c-2.23-1.47-4.18-4.08-5.87-7.85c-1.26-2.82-1.98-5.32-2.16-7.48
              c-0.17-2.17,0.01-3.92,0.55-5.26c0.54-1.34,1.52-2.33,2.95-2.97c1.69-0.76,3.28-0.79,4.77-0.11c1.49,0.68,2.57,1.77,3.23,3.25
              c0.34,0.77,0.47,1.5,0.39,2.18c-0.09,0.68-0.46,1.17-1.13,1.47c-0.69,0.31-1.33,0.29-1.93-0.06c-0.6-0.35-1.07-0.91-1.41-1.68
              c-0.15-0.33-0.28-0.72-0.4-1.18c-0.13-0.54-0.26-0.96-0.39-1.25c-0.14-0.3-0.36-0.51-0.68-0.62c-0.32-0.11-0.62-0.1-0.91,0.03
              c-0.28,0.12-0.46,0.35-0.55,0.69C129.69,52.43,129.71,52.74,129.84,53.03L129.84,53.03z"/>
            <path fill="#00ABD6" d="M150.3,60.65l1.42,4.94c0.1,0.33,0.33,0.54,0.7,0.64c0.28,0.06,0.48,0.27,0.58,0.61l0.28,0.98
              c0.13,0.45-0.04,0.75-0.5,0.88l-6.67,1.92c-0.44,0.13-0.74-0.09-0.9-0.64l-0.25-0.87c-0.06-0.21,0.05-0.5,0.33-0.87
              c0.23-0.32,0.34-0.53,0.35-0.64c0-0.11-0.03-0.26-0.09-0.47l-6.35-22.06c-0.23-0.79-0.63-1.28-1.21-1.49
              c-0.19-0.08-0.32-0.16-0.36-0.25c-0.05-0.09-0.12-0.33-0.23-0.71c-0.23-0.8-0.35-1.26-0.35-1.4c0-0.13,0.16-0.25,0.51-0.35
              l5.84-1.68c0.31-0.09,0.51-0.1,0.61-0.03c0.1,0.07,0.2,0.28,0.3,0.64l4.59,15.97l1.15-8.73c0.08-0.55,0.1-0.92,0.05-1.09
              c-0.12-0.4-0.49-0.64-1.13-0.71c-0.28-0.02-0.49-0.1-0.62-0.22c-0.13-0.12-0.26-0.41-0.39-0.87c-0.16-0.56-0.21-0.93-0.13-1.09
              c0.07-0.16,0.26-0.29,0.57-0.37l5.09-1.46c0.29-0.04,0.53,0.24,0.71,0.85c0.16,0.55,0.21,0.94,0.17,1.17
              c-0.05,0.23-0.22,0.48-0.53,0.77c-0.47,0.43-0.76,0.9-0.85,1.42l-0.5,3.09l8.28,14.03c0.24,0.42,0.6,0.71,1.09,0.86
              c0.32,0.09,0.53,0.32,0.63,0.68l0.28,0.98c0.13,0.45-0.06,0.75-0.56,0.9l-4.96,1.43c-0.63,0.18-1.15-0.11-1.57-0.87l-4.81-8.83
              L150.3,60.65L150.3,60.65z"/>
            <path fill="#00ABD6" d="M167.15,44.04c0.11-0.33,0.21-0.88,0.32-1.67c0.24-1.71,0.56-2.81,0.96-3.3c0.4-0.48,0.88-0.77,1.44-0.85
              c0.76-0.11,1.38,0.17,1.87,0.83c0.49,0.66,0.81,1.54,0.97,2.63c0.34,2.34-0.15,3.61-1.46,3.8c-0.66,0.1-1.22-0.22-1.69-0.94
              c-0.28-0.41-0.53-0.6-0.76-0.57c-0.57,0.08-0.76,0.75-0.58,2l2.2,15.16c0.07,0.48,0.34,0.8,0.82,0.97
              c0.47,0.15,0.75,0.47,0.82,0.95l0.12,0.85c0.04,0.3,0.04,0.5-0.02,0.59c-0.06,0.09-0.25,0.16-0.58,0.21l-7.15,1.04
              c-0.49,0.07-0.77-0.13-0.84-0.59l-0.15-1.04c-0.05-0.35,0.02-0.6,0.22-0.75c0.4-0.28,0.57-0.64,0.5-1.08l-2.77-19.11
              c-0.06-0.43-0.26-0.72-0.59-0.86c-0.36-0.14-0.57-0.26-0.63-0.36c-0.07-0.1-0.14-0.42-0.22-0.97c-0.07-0.46-0.04-0.75,0.08-0.88
              c0.12-0.13,0.33-0.22,0.65-0.27l5.12-0.74c0.24-0.03,0.41,0.01,0.52,0.13c0.11,0.12,0.2,0.43,0.27,0.94L167.15,44.04L167.15,44.04z
              "/>
            <path fill="#00ABD6" d="M177.02,40.64c-0.17-0.07-0.3-0.13-0.39-0.17c-0.32-0.14-0.52-0.27-0.61-0.41
              c-0.08-0.13-0.13-0.41-0.13-0.83c0-0.23-0.01-0.42-0.03-0.57c0-0.38,0.05-0.64,0.15-0.76c0.11-0.12,0.35-0.19,0.72-0.19l5.96-0.07
              c0.29,0,0.47,0.04,0.54,0.13c0.07,0.09,0.1,0.31,0.1,0.65l0.21,18.88c0.02,1.65,0.48,2.47,1.39,2.46c0.69-0.01,1.21-0.31,1.56-0.9
              l-0.2-17.73c-0.01-0.46-0.23-0.82-0.68-1.07c-0.22-0.13-0.35-0.26-0.4-0.41c-0.05-0.15-0.07-0.64-0.08-1.49
              c0-0.37,0.21-0.56,0.65-0.56l6.27-0.07c0.27,0,0.43,0.03,0.49,0.11c0.06,0.08,0.09,0.28,0.09,0.61l0.24,21.97
              c0,0.42,0.18,0.71,0.53,0.88c0.42,0.23,0.64,0.61,0.65,1.14c0.01,0.77-0.02,1.2-0.07,1.31c-0.06,0.1-0.26,0.16-0.6,0.16l-5.83,0.06
              c-0.37,0-0.63-0.06-0.77-0.19c-0.14-0.13-0.22-0.42-0.22-0.87l-0.01-0.48c-0.01-0.51-0.02-0.8-0.03-0.86
              c-2.01,1.81-3.72,2.73-5.13,2.74c-1.21,0.01-2.2-0.38-2.98-1.18c-0.78-0.8-1.18-2.35-1.21-4.65L177.02,40.64L177.02,40.64z"/>
            <path fill="#00ABD6" d="M197.8,34.8l0.1-0.95c0.04-0.41,0.33-0.58,0.87-0.52l5.89,0.63c0.32,0.03,0.53,0.08,0.62,0.14
              c0.1,0.06,0.12,0.28,0.08,0.66l-2.83,26.64c-0.06,0.58,0.09,0.97,0.46,1.15c0.26,0.13,0.37,0.36,0.33,0.69l-0.12,1.09
              c-0.04,0.39-0.35,0.56-0.92,0.5l-7-0.74c-0.39-0.04-0.57-0.26-0.53-0.65l0.12-1.09c0.05-0.44,0.28-0.75,0.7-0.93
              c0.27-0.1,0.44-0.2,0.51-0.3c0.08-0.1,0.13-0.3,0.16-0.61l2.51-23.62c0.05-0.44-0.09-0.76-0.42-0.95
              C197.92,35.66,197.74,35.29,197.8,34.8L197.8,34.8z"/>
            <path fill="#00ABD6" d="M209.77,36.23l0.18-0.94c0.08-0.4,0.38-0.55,0.91-0.45l5.82,1.11c0.31,0.06,0.52,0.12,0.61,0.19
              c0.09,0.07,0.1,0.29,0.03,0.67l-5.02,26.31c-0.11,0.58,0.01,0.97,0.36,1.18c0.24,0.15,0.34,0.39,0.27,0.72l-0.2,1.07
              c-0.07,0.39-0.39,0.53-0.96,0.42l-6.91-1.32c-0.39-0.07-0.55-0.31-0.47-0.69l0.2-1.07c0.08-0.44,0.34-0.73,0.77-0.87
              c0.28-0.08,0.45-0.16,0.54-0.26c0.08-0.09,0.15-0.29,0.21-0.59l4.45-23.34c0.08-0.44-0.03-0.77-0.34-0.98
              C209.83,37.09,209.68,36.7,209.77,36.23L209.77,36.23z"/>
            <path fill="#00ABD6" d="M227.88,54.3c-1.57,0.17-2.61,0.6-3.12,1.27c-0.51,0.68-1.18,2.35-2.03,5.01c-0.62,1.96-0.9,3.23-0.85,3.82
              c0.06,0.59,0.35,0.96,0.89,1.13c0.94,0.3,1.65-0.33,2.15-1.89L227.88,54.3L227.88,54.3z M228.63,51.93l1.12-3.53
              c0.31-0.97,0.07-1.59-0.73-1.84c-1.09-0.34-1.86,0.22-2.33,1.7c-0.26,0.83-0.54,1.39-0.84,1.68c-0.3,0.29-0.82,0.46-1.57,0.5
              c-0.74,0.04-1.49-0.06-2.25-0.3c-1.55-0.49-2.06-1.56-1.54-3.22c0.49-1.56,1.57-2.62,3.23-3.18c1.66-0.56,3.57-0.5,5.74,0.19
              c1.43,0.45,2.65,1.05,3.66,1.8c1.02,0.75,1.72,1.7,2.11,2.84c0.39,1.14,0.41,2.27,0.06,3.37l-5.27,16.68
              c0,0.09,0.12,0.33,0.38,0.72c0.19,0.26,0.22,0.57,0.11,0.92c-0.15,0.49-0.33,0.81-0.53,0.97c-0.2,0.16-0.58,0.24-1.15,0.25
              c-0.57,0.01-1.25-0.11-2.03-0.36c-0.95-0.3-1.69-0.72-2.21-1.27c-0.52-0.55-0.8-1.38-0.84-2.51c-1.41,0.76-2.49,1.19-3.24,1.29
              c-0.75,0.1-1.48,0.04-2.17-0.18c-1.55-0.49-2.55-1.47-3.02-2.95c-0.46-1.48-0.26-3.59,0.61-6.35c0.87-2.75,1.87-4.53,3-5.35
              c1.13-0.82,2.99-1.31,5.57-1.48C226.15,52.21,227.53,52.09,228.63,51.93L228.63,51.93z"/>
            <path fill="#00ABD6" d="M245.69,56.05c0.27-0.21,0.66-0.62,1.19-1.22c1.15-1.3,2.02-2.04,2.62-2.22c0.6-0.18,1.16-0.16,1.67,0.08
              c0.69,0.33,1.06,0.9,1.11,1.73c0.04,0.83-0.17,1.74-0.64,2.73c-1.01,2.14-2.11,2.93-3.31,2.36c-0.6-0.28-0.9-0.85-0.89-1.71
              c-0.01-0.5-0.11-0.79-0.32-0.89c-0.52-0.24-1.05,0.21-1.59,1.35l-6.51,13.87c-0.21,0.44-0.16,0.86,0.15,1.26
              c0.31,0.39,0.37,0.8,0.16,1.24l-0.37,0.78c-0.13,0.28-0.25,0.44-0.34,0.48c-0.1,0.05-0.3,0-0.6-0.14l-6.54-3.07
              c-0.45-0.21-0.58-0.53-0.38-0.96l0.45-0.95c0.15-0.32,0.35-0.49,0.6-0.5c0.49-0.01,0.82-0.22,1.01-0.63l8.21-17.48
              c0.18-0.39,0.18-0.74-0.02-1.05c-0.22-0.32-0.33-0.53-0.33-0.65c0-0.12,0.12-0.43,0.35-0.93c0.19-0.42,0.38-0.65,0.55-0.7
              c0.17-0.05,0.4,0,0.69,0.13l4.69,2.2c0.22,0.1,0.34,0.23,0.37,0.39c0.02,0.16-0.07,0.47-0.29,0.93L245.69,56.05L245.69,56.05z"/>
            <path fill="#00ABD6" d="M261.37,61.85c2.32-0.79,4.3-0.65,5.94,0.41c1.12,0.72,1.75,1.64,1.87,2.75c0.13,1.11-0.16,2.21-0.87,3.31
              l-9.96,15.44c-0.22,0.34-0.26,0.69-0.11,1.05c0.15,0.31,0.02,0.78-0.38,1.4c-0.32,0.49-0.55,0.76-0.69,0.81
              c-0.14,0.04-0.34-0.02-0.6-0.18l-4.53-2.92c-0.29-0.96-0.15-1.89,0.42-2.77l9.88-15.32c0.54-0.84,0.47-1.48-0.22-1.92
              c-0.45-0.29-1.09-0.37-1.92-0.24l-9.7,15.03c-0.25,0.39-0.26,0.81-0.02,1.27c0.14,0.27,0.1,0.58-0.12,0.93l-0.53,0.82
              c-0.24,0.37-0.62,0.38-1.14,0.04l-5.72-3.69c-0.28-0.18-0.43-0.33-0.45-0.46c-0.02-0.13,0.07-0.35,0.28-0.68l0.38-0.6
              c0.2-0.31,0.44-0.47,0.72-0.47c0.38-0.02,0.65-0.08,0.83-0.19c0.18-0.11,0.45-0.44,0.8-0.99L255.7,58.9
              c0.24-0.38,0.24-0.77-0.02-1.17c-0.14-0.23-0.13-0.47,0.03-0.71l0.55-0.85c0.21-0.33,0.47-0.4,0.77-0.21l5.25,3.39
              c0.23,0.15,0.34,0.27,0.36,0.37c0.01,0.1-0.05,0.25-0.18,0.45L261.37,61.85L261.37,61.85z"/>
            <path fill="#00ABD6" d="M275.71,82.13c-1.5-0.48-2.63-0.52-3.37-0.11c-0.74,0.41-2.04,1.66-3.89,3.75
              c-1.36,1.54-2.14,2.58-2.33,3.14c-0.19,0.56-0.07,1.02,0.35,1.4c0.74,0.65,1.65,0.37,2.73-0.85L275.71,82.13L275.71,82.13z
              M277.37,80.27l2.46-2.77c0.68-0.77,0.71-1.42,0.09-1.97c-0.85-0.75-1.79-0.55-2.82,0.6c-0.58,0.65-1.06,1.05-1.46,1.19
              c-0.39,0.15-0.94,0.09-1.63-0.18c-0.69-0.27-1.34-0.66-1.93-1.19c-1.21-1.08-1.24-2.27-0.09-3.57c1.09-1.22,2.5-1.75,4.24-1.59
              c1.74,0.16,3.47,1,5.17,2.51c1.12,0.99,1.99,2.04,2.61,3.14c0.62,1.1,0.88,2.25,0.77,3.45c-0.11,1.2-0.55,2.24-1.32,3.11
              l-11.61,13.08c-0.04,0.08-0.02,0.35,0.05,0.81c0.06,0.31-0.03,0.61-0.27,0.89c-0.34,0.38-0.63,0.61-0.88,0.67
              c-0.25,0.06-0.63-0.02-1.16-0.24c-0.52-0.23-1.09-0.61-1.71-1.15c-0.75-0.66-1.25-1.35-1.5-2.06c-0.26-0.71-0.17-1.59,0.26-2.63
              c-1.6,0.12-2.76,0.07-3.49-0.14c-0.73-0.22-1.36-0.57-1.91-1.05c-1.21-1.08-1.73-2.38-1.55-3.92c0.18-1.54,1.22-3.39,3.14-5.55
              c1.92-2.16,3.56-3.38,4.92-3.66c1.36-0.28,3.26,0.02,5.69,0.92C274.98,79.52,276.29,79.96,277.37,80.27L277.37,80.27z"/>
            <path fill="#00ABD6" d="M130.62,22.32l3.41,9.55l0.37-0.13c0.26-0.09,0.41-0.27,0.45-0.52c0.04-0.26-0.03-0.66-0.23-1.21
              l-2.51-7.05c-0.11-0.31-0.27-0.53-0.49-0.67c-0.22-0.14-0.46-0.16-0.73-0.07L130.62,22.32L130.62,22.32z M131.19,32.01l-2.98-8.35
              c-0.05-0.09-0.15-0.13-0.32-0.12c-0.13,0.01-0.23-0.02-0.3-0.08c-0.07-0.06-0.14-0.2-0.23-0.44c-0.06-0.17-0.07-0.29-0.03-0.37
              c0.04-0.08,0.18-0.16,0.43-0.25l3.3-1.18c0.94-0.34,1.88-0.18,2.81,0.47c0.93,0.65,1.75,1.98,2.47,4c0.66,1.84,0.85,3.32,0.58,4.45
              c-0.27,1.13-0.9,1.87-1.88,2.22l-3.64,1.3c-0.1,0.04-0.18,0.04-0.24,0c-0.06-0.03-0.11-0.13-0.17-0.3
              c-0.07-0.2-0.11-0.32-0.11-0.38c0-0.06,0.04-0.14,0.14-0.24C131.23,32.52,131.28,32.28,131.19,32.01L131.19,32.01z"/>
            <path fill="#00ABD6" d="M142.3,20.52l0.73,5.74l1.57-0.43L142.3,20.52L142.3,20.52z M144.9,26.62l-1.76,0.49l0.1,0.67
              c0,0.01,0,0.04,0,0.07c0,0.15,0.01,0.28,0.04,0.38c0.05,0.17,0.2,0.28,0.45,0.34c0.13,0.03,0.22,0.07,0.27,0.13
              c0.05,0.06,0.09,0.16,0.13,0.31c0.05,0.19,0.07,0.31,0.06,0.36c-0.01,0.05-0.05,0.08-0.13,0.1l-1.86,0.51
              c-0.1,0.03-0.18-0.07-0.24-0.28c-0.07-0.26-0.05-0.49,0.07-0.7c0.12-0.19,0.16-0.37,0.14-0.54l-0.99-8.67
              c-0.01-0.13-0.03-0.25-0.06-0.34c-0.04-0.15-0.18-0.25-0.41-0.3c-0.11-0.03-0.19-0.14-0.25-0.34c-0.07-0.26-0.1-0.42-0.09-0.49
              c0.01-0.07,0.08-0.12,0.2-0.15l2.7-0.74c0.16-0.05,0.3,0,0.41,0.14c0.11,0.14,0.27,0.46,0.48,0.96c0.08,0.19,0.17,0.39,0.25,0.58
              l3.3,7.44c0.16,0.36,0.38,0.61,0.65,0.75c0.08,0.04,0.13,0.07,0.15,0.09c0.03,0.03,0.06,0.12,0.1,0.27
              c0.07,0.24,0.09,0.39,0.07,0.45c-0.02,0.06-0.08,0.11-0.19,0.14l-3.14,0.87c-0.09,0.03-0.17-0.05-0.21-0.23
              c-0.06-0.23-0.09-0.37-0.08-0.43c0.01-0.06,0.06-0.15,0.15-0.25c0.13-0.15,0.18-0.3,0.14-0.46
              C145.32,27.56,145.16,27.19,144.9,26.62L144.9,26.62z"/>
            <path fill="#00ABD6" d="M152.95,20.35l1.03,5.07c0.04,0.21,0.19,0.34,0.46,0.4c0.22,0.05,0.35,0.16,0.38,0.33
              c0.07,0.35,0.1,0.54,0.09,0.59c-0.01,0.04-0.08,0.08-0.2,0.1l-1.9,0.39c-0.1,0.02-0.16-0.01-0.2-0.07
              c-0.04-0.07-0.09-0.25-0.15-0.54c-0.03-0.13,0.02-0.24,0.13-0.32c0.22-0.16,0.32-0.31,0.29-0.45l-1.73-8.48
              c-0.04-0.21-0.09-0.36-0.15-0.45c-0.06-0.09-0.16-0.16-0.31-0.2c-0.13-0.03-0.22-0.08-0.28-0.14c-0.05-0.06-0.1-0.18-0.14-0.37
              c-0.07-0.34-0.01-0.52,0.16-0.56l1.99-0.4l3.56,5.11l-0.84-4.13c-0.05-0.23-0.2-0.37-0.45-0.42c-0.15-0.03-0.26-0.09-0.31-0.16
              c-0.06-0.07-0.11-0.22-0.16-0.45c-0.03-0.14-0.03-0.23-0.01-0.27c0.02-0.04,0.07-0.06,0.16-0.08l1.98-0.4
              c0.11-0.01,0.2,0.14,0.26,0.44c0.04,0.18,0.05,0.29,0.04,0.34c-0.01,0.05-0.05,0.1-0.12,0.15c-0.15,0.1-0.25,0.19-0.28,0.26
              c-0.03,0.07-0.03,0.16-0.01,0.27l2.07,10.2l-1.22,0.25L152.95,20.35L152.95,20.35z"/>
            <path fill="#00ABD6" d="M164.53,13.49c0.03-0.03,0.09-0.15,0.2-0.36c0.07-0.14,0.18-0.22,0.32-0.24c0.03,0,0.17-0.01,0.41,0
              c0.05,0.04,0.11,0.14,0.15,0.29l0.73,2.41c0.04,0.13,0.06,0.2,0.06,0.23c0.01,0.09,0,0.16-0.05,0.19c-0.05,0.04-0.18,0.07-0.4,0.1
              c-0.25,0.03-0.41,0.02-0.49-0.03c-0.08-0.05-0.25-0.3-0.52-0.73c-0.56-0.91-1.02-1.35-1.35-1.3c-0.24,0.03-0.34,0.22-0.29,0.56
              c0.06,0.42,0.54,1.2,1.44,2.33c1.03,1.31,1.72,2.26,2.06,2.86c0.34,0.6,0.57,1.3,0.67,2.08c0.13,0.93,0.01,1.68-0.36,2.24
              c-0.37,0.56-0.83,0.88-1.38,0.95c-0.35,0.05-0.7,0-1.05-0.16c-0.14-0.06-0.24-0.09-0.31-0.08c-0.06,0.01-0.11,0.06-0.13,0.16
              c-0.05,0.19-0.23,0.31-0.53,0.35c-0.12,0.02-0.2,0.01-0.24-0.02c-0.05-0.03-0.09-0.12-0.13-0.27l-0.7-2.37
              c-0.09-0.3-0.14-0.46-0.14-0.48c-0.02-0.14,0.1-0.23,0.36-0.26c0.35-0.05,0.56-0.03,0.64,0.05c0.08,0.08,0.19,0.28,0.36,0.59
              c0.59,1.12,1.1,1.65,1.53,1.59c0.16-0.02,0.28-0.1,0.36-0.23c0.08-0.13,0.11-0.28,0.09-0.46c-0.04-0.3-0.2-0.65-0.48-1.04
              c-0.28-0.39-0.61-0.82-1-1.29c-0.93-1.12-1.61-2.03-2.03-2.72c-0.42-0.69-0.68-1.42-0.78-2.18c-0.12-0.86-0.02-1.57,0.28-2.14
              c0.31-0.56,0.73-0.88,1.28-0.96C163.47,13.12,163.95,13.23,164.53,13.49L164.53,13.49z"/>
            <g>
              <path fill="#00ABD6" d="M176.36,15.36l2.38,6.85c0.08,0.23,0.21,0.39,0.4,0.46c0.12,0.05,0.19,0.18,0.2,0.38
                c0,0.02,0,0.17,0.01,0.44c-0.01,0.12-0.1,0.18-0.29,0.2l-2.91,0.2c-0.11,0.01-0.18-0.01-0.22-0.04c-0.04-0.04-0.06-0.14-0.07-0.32
                c0-0.03-0.01-0.16-0.01-0.38c0.01-0.09,0.06-0.16,0.16-0.2c0.15-0.06,0.22-0.16,0.21-0.29c0-0.03-0.01-0.08-0.02-0.12l-1.28-3.62
                l-0.21,0.57l0.21,2.98c0.02,0.25,0.14,0.43,0.37,0.55c0.1,0.05,0.15,0.17,0.16,0.36c0.02,0.22,0.01,0.38-0.03,0.45
                c-0.03,0.08-0.13,0.12-0.28,0.13l-3.06,0.21c-0.11,0.01-0.19-0.01-0.24-0.05c-0.05-0.04-0.08-0.17-0.09-0.39
                c-0.01-0.22-0.01-0.35,0.02-0.41c0.03-0.06,0.09-0.11,0.19-0.16c0.18-0.09,0.26-0.22,0.24-0.41l-0.61-8.77
                c-0.02-0.22-0.11-0.38-0.3-0.47c-0.12-0.06-0.2-0.12-0.22-0.16c-0.03-0.04-0.05-0.14-0.06-0.29c-0.02-0.33-0.02-0.52,0-0.58
                c0.02-0.05,0.09-0.08,0.21-0.09l3.33-0.23c0.16-0.01,0.24,0.05,0.25,0.17c0.03,0.39,0.04,0.62,0.03,0.68
                c-0.01,0.06-0.08,0.13-0.2,0.22c-0.23,0.14-0.33,0.3-0.32,0.49l0.26,3.74l1.33-3.73c0.07-0.2,0.11-0.36,0.1-0.46
                c0-0.06-0.07-0.13-0.19-0.21c-0.13-0.08-0.22-0.15-0.25-0.21c-0.03-0.06-0.06-0.22-0.07-0.48c-0.01-0.19,0.05-0.29,0.19-0.3
                l1.94-0.14c0.11-0.01,0.18,0.01,0.21,0.05c0.03,0.04,0.05,0.17,0.06,0.37c0.02,0.22,0.01,0.36-0.02,0.41
                c-0.03,0.05-0.12,0.12-0.28,0.19c-0.12,0.06-0.2,0.1-0.23,0.13c-0.03,0.03-0.07,0.1-0.11,0.2L176.36,15.36L176.36,15.36z"/>
              <path fill="#00ABD6" d="M186.51,22.74l0.42,0c0.22,0,0.37-0.09,0.48-0.26c0.1-0.17,0.24-0.57,0.4-1.19
                c0.06-0.24,0.13-0.38,0.21-0.44c0.08-0.05,0.22-0.08,0.42-0.08c0.22,0,0.36,0.02,0.43,0.05c0.06,0.04,0.1,0.1,0.1,0.2
                c0,0.07-0.01,0.18-0.04,0.33l-0.25,1.75c-0.03,0.18-0.07,0.3-0.11,0.36c-0.05,0.06-0.14,0.09-0.28,0.09l-4.82,0.01
                c-0.21,0-0.31-0.13-0.31-0.38c0-0.2,0.01-0.32,0.04-0.38c0.03-0.06,0.08-0.1,0.17-0.13c0.28-0.09,0.42-0.35,0.42-0.77l-0.03-8.7
                c0-0.18-0.09-0.31-0.27-0.39c-0.15-0.06-0.24-0.13-0.28-0.21c-0.03-0.08-0.05-0.21-0.05-0.39c0-0.21,0.01-0.35,0.04-0.4
                c0.03-0.05,0.11-0.08,0.23-0.08l3.38-0.01c0.13,0,0.21,0.03,0.26,0.09c0.05,0.06,0.07,0.23,0.07,0.49c0,0.16-0.02,0.27-0.05,0.33
                c-0.03,0.06-0.11,0.11-0.24,0.15c-0.24,0.08-0.37,0.25-0.36,0.48L186.51,22.74L186.51,22.74z"/>
            </g>
            <path fill="#00ABD6" d="M193.8,11.89l3.17,0.19c0.11,0.01,0.17,0.03,0.2,0.08c0.03,0.05,0.03,0.19,0.02,0.43
              c-0.01,0.24-0.09,0.39-0.24,0.46c-0.11,0.05-0.19,0.11-0.23,0.17c-0.04,0.06-0.07,0.18-0.08,0.36l-0.5,8.19
              c-0.01,0.22,0.04,0.41,0.16,0.56c0.12,0.15,0.28,0.23,0.47,0.24c0.18,0.01,0.34-0.06,0.47-0.21c0.14-0.15,0.21-0.32,0.22-0.51
              l0.5-8.19c0.01-0.14,0-0.24-0.02-0.3c-0.02-0.06-0.09-0.13-0.19-0.22c-0.16-0.14-0.23-0.34-0.21-0.6c0.01-0.21,0.04-0.33,0.09-0.37
              c0.05-0.04,0.12-0.06,0.21-0.05l1.58,0.1c0.18,0.01,0.26,0.1,0.25,0.28l-0.02,0.35c-0.01,0.16-0.03,0.25-0.05,0.29
              c-0.02,0.04-0.08,0.07-0.18,0.1c-0.23,0.06-0.36,0.22-0.37,0.45l-0.49,7.98c-0.05,0.76-0.3,1.34-0.76,1.76
              c-0.46,0.41-1.08,0.6-1.85,0.55c-0.87-0.05-1.52-0.33-1.94-0.82c-0.43-0.5-0.61-1.18-0.56-2.07l0.47-7.71
              c0.01-0.2-0.09-0.36-0.29-0.47c-0.1-0.05-0.17-0.1-0.19-0.15c-0.02-0.04-0.02-0.13-0.02-0.27c0.02-0.28,0.05-0.46,0.08-0.53
              C193.54,11.91,193.64,11.88,193.8,11.89L193.8,11.89z"/>
            <path fill="#00ABD6" d="M207.49,13.91l-0.5,3.81l0.38,0.05c0.24,0.03,0.44-0.01,0.6-0.14c0.16-0.12,0.27-0.35,0.33-0.67
              c0.06-0.32,0.13-0.74,0.2-1.23c0.09-0.7,0.08-1.16-0.02-1.38c-0.11-0.22-0.31-0.35-0.6-0.39L207.49,13.91L207.49,13.91z
              M206.88,18.55l-0.71,5.42c0.45,0.06,0.75,0.04,0.92-0.06c0.17-0.1,0.29-0.33,0.36-0.68c0.07-0.35,0.17-0.96,0.28-1.81
              c0.02-0.17,0.07-0.57,0.13-1.19c0.07-0.62,0.09-0.99,0.06-1.13c-0.03-0.13-0.09-0.24-0.19-0.33c-0.1-0.09-0.26-0.14-0.47-0.17
              L206.88,18.55L206.88,18.55z M208.84,18.38c0.85,0.43,1.4,0.89,1.68,1.39c0.27,0.5,0.36,1.15,0.25,1.96
              c-0.16,1.22-0.59,2.1-1.28,2.62c-0.69,0.52-1.68,0.69-2.97,0.52l-3.55-0.47c-0.15-0.02-0.21-0.1-0.19-0.25l0.06-0.44
              c0.02-0.12,0.09-0.2,0.23-0.24c0.29-0.09,0.46-0.27,0.49-0.52l1.15-8.76c0.02-0.12,0.01-0.21-0.03-0.25
              c-0.03-0.05-0.14-0.13-0.32-0.25c-0.09-0.06-0.14-0.11-0.15-0.17c-0.01-0.06,0-0.19,0.03-0.4c0.02-0.18,0.07-0.3,0.12-0.36
              c0.06-0.06,0.15-0.08,0.28-0.06l3.98,0.52c0.96,0.13,1.66,0.47,2.11,1.02c0.45,0.56,0.62,1.21,0.52,1.97
              c-0.08,0.63-0.35,1.13-0.81,1.5C209.98,18.1,209.45,18.32,208.84,18.38L208.84,18.38z"/>
            <path fill="#00ABD6" d="M219.74,15.96l-0.79,3.76l0.38,0.08c0.24,0.05,0.44,0.02,0.61-0.09c0.17-0.11,0.29-0.32,0.38-0.64
              c0.09-0.32,0.18-0.72,0.29-1.22c0.14-0.69,0.17-1.15,0.08-1.38c-0.09-0.23-0.28-0.38-0.57-0.44L219.74,15.96L219.74,15.96z
              M218.79,20.54l-1.12,5.35c0.44,0.09,0.75,0.09,0.92,0.01c0.18-0.09,0.31-0.31,0.41-0.65c0.1-0.35,0.24-0.94,0.42-1.78
              c0.04-0.17,0.11-0.56,0.22-1.18c0.11-0.61,0.16-0.99,0.14-1.12c-0.02-0.13-0.07-0.25-0.16-0.34c-0.09-0.09-0.24-0.16-0.45-0.21
              L218.79,20.54L218.79,20.54z M220.75,20.52c0.81,0.49,1.33,0.99,1.57,1.51c0.24,0.52,0.27,1.18,0.1,1.97
              c-0.25,1.21-0.75,2.05-1.48,2.51c-0.73,0.47-1.73,0.56-3,0.3l-3.51-0.73c-0.14-0.03-0.2-0.12-0.17-0.27l0.09-0.43
              c0.02-0.12,0.11-0.19,0.25-0.22c0.3-0.07,0.48-0.23,0.53-0.48l1.81-8.65c0.02-0.12,0.02-0.2-0.01-0.26
              c-0.03-0.05-0.13-0.14-0.3-0.27c-0.09-0.06-0.13-0.12-0.14-0.18c-0.01-0.06,0.01-0.19,0.06-0.39c0.04-0.18,0.09-0.3,0.15-0.35
              c0.06-0.05,0.16-0.06,0.28-0.04l3.93,0.82c0.95,0.2,1.62,0.59,2.03,1.18c0.41,0.59,0.53,1.26,0.37,2c-0.13,0.62-0.44,1.1-0.93,1.44
              C221.91,20.31,221.36,20.49,220.75,20.52L220.75,20.52z"/>
            <path fill="#00ABD6" d="M231.82,19l-1.14,4.02l0.48,0.14c0.13,0.04,0.24,0.04,0.31,0c0.08-0.04,0.16-0.15,0.24-0.33
              c0.15-0.32,0.25-0.5,0.31-0.56c0.05-0.06,0.12-0.07,0.19-0.05c0.37,0.11,0.58,0.18,0.62,0.22c0.04,0.04,0.03,0.17-0.03,0.38
              l-0.66,2.35c-0.04,0.15-0.09,0.23-0.15,0.27c-0.06,0.03-0.21,0.01-0.46-0.06c-0.16-0.05-0.26-0.1-0.3-0.18
              c-0.04-0.07-0.04-0.25-0.02-0.54c0.02-0.26,0.01-0.43-0.02-0.5c-0.03-0.07-0.1-0.12-0.21-0.15l-0.55-0.16l-1.38,4.85l0.37,0.11
              c0.23,0.07,0.41,0.05,0.53-0.06c0.12-0.1,0.37-0.44,0.74-1c0.15-0.24,0.28-0.38,0.39-0.44c0.11-0.06,0.27-0.05,0.48,0.01
              c0.29,0.08,0.41,0.22,0.36,0.41c-0.02,0.06-0.05,0.14-0.1,0.24l-0.72,1.53c-0.13,0.28-0.22,0.44-0.27,0.49
              c-0.05,0.05-0.15,0.05-0.31,0.01l-4.7-1.33c-0.12-0.03-0.18-0.08-0.2-0.15c-0.02-0.06,0.01-0.22,0.08-0.48
              c0.05-0.16,0.17-0.26,0.36-0.29c0.29-0.03,0.46-0.15,0.51-0.33l2.49-8.79c0.02-0.09-0.06-0.21-0.24-0.36
              c-0.12-0.1-0.19-0.18-0.2-0.25c-0.01-0.06,0.02-0.2,0.08-0.42c0.05-0.18,0.1-0.29,0.14-0.32c0.04-0.03,0.13-0.02,0.26,0.02
              l4.5,1.28c0.11,0.03,0.19,0.07,0.23,0.13c0.04,0.05,0.06,0.15,0.04,0.3l-0.16,1.92c-0.01,0.1-0.02,0.17-0.03,0.2
              c-0.04,0.13-0.17,0.16-0.39,0.09c-0.26-0.07-0.42-0.15-0.49-0.23c-0.07-0.08-0.11-0.25-0.12-0.51c-0.02-0.46-0.07-0.79-0.12-0.99
              c-0.06-0.19-0.15-0.31-0.28-0.35L231.82,19L231.82,19z"/>
            <path fill="#00ABD6" d="M238.92,25.67l-1.74,4.87c-0.07,0.2-0.01,0.4,0.18,0.58c0.16,0.16,0.21,0.31,0.16,0.48
              c-0.12,0.34-0.19,0.52-0.22,0.55c-0.03,0.03-0.1,0.03-0.22-0.02l-1.83-0.65c-0.09-0.03-0.14-0.09-0.13-0.17
              c0-0.08,0.05-0.26,0.15-0.54c0.05-0.13,0.14-0.2,0.28-0.2c0.27-0.02,0.43-0.1,0.48-0.23l2.91-8.15c0.07-0.2,0.1-0.35,0.1-0.46
              c0-0.11-0.05-0.22-0.16-0.33c-0.09-0.1-0.15-0.18-0.16-0.26c-0.02-0.08,0.01-0.21,0.07-0.39c0.11-0.32,0.26-0.45,0.43-0.39
              l1.91,0.68l0.4,6.21l1.41-3.97c0.08-0.22,0.02-0.42-0.17-0.59c-0.11-0.11-0.17-0.21-0.19-0.3c-0.01-0.09,0.02-0.25,0.1-0.47
              c0.05-0.14,0.09-0.22,0.13-0.24c0.04-0.02,0.1-0.02,0.17,0.01l1.9,0.68c0.1,0.05,0.1,0.22,0,0.51c-0.06,0.17-0.11,0.27-0.15,0.31
              c-0.04,0.04-0.1,0.06-0.18,0.07c-0.18,0.01-0.31,0.03-0.37,0.08c-0.06,0.05-0.11,0.12-0.15,0.23l-3.5,9.8l-1.17-0.42L238.92,25.67
              L238.92,25.67z"/>
          </g>
          </svg>